<?xml version="1.0" encoding="UTF-8" standalone="no"?>
<!-- Created with Inkscape (http://www.inkscape.org/) -->

<svg
   xmlns:dc="http://purl.org/dc/elements/1.1/"
   xmlns:cc="http://creativecommons.org/ns#"
   xmlns:rdf="http://www.w3.org/1999/02/22-rdf-syntax-ns#"
   xmlns:svg="http://www.w3.org/2000/svg"
   xmlns="http://www.w3.org/2000/svg"
   xmlns:sodipodi="http://sodipodi.sourceforge.net/DTD/sodipodi-0.dtd"
   xmlns:inkscape="http://www.inkscape.org/namespaces/inkscape"
   width="1.95in"
   height="1.126in"
   viewBox="0 0 175.49999 101.34"
   id="svg4171"
   version="1.1"
   inkscape:version="0.92.3 (2405546, 2018-03-11)"
   sodipodi:docname="cmdc0de-dt.svg">
  <defs
     id="defs4173" />
  <sodipodi:namedview
     id="base"
     pagecolor="#ffffff"
     bordercolor="#666666"
     borderopacity="1.0"
     inkscape:pageopacity="0.0"
     inkscape:pageshadow="2"
     inkscape:zoom="2.8"
     inkscape:cx="-110.31528"
     inkscape:cy="46.321433"
     inkscape:document-units="px"
     inkscape:current-layer="layer1"
     showgrid="false"
     fit-margin-top="0"
     fit-margin-left="0"
     fit-margin-right="0"
     fit-margin-bottom="0"
     inkscape:window-width="3018"
     inkscape:window-height="1548"
     inkscape:window-x="2179"
     inkscape:window-y="1943"
     inkscape:window-maximized="0"
     units="in" />
  <metadata
     id="metadata4176">
    <rdf:RDF>
      <cc:Work
         rdf:about="">
        <dc:format>image/svg+xml</dc:format>
        <dc:type
           rdf:resource="http://purl.org/dc/dcmitype/StillImage" />
        <dc:title />
      </cc:Work>
    </rdf:RDF>
  </metadata>
  <g
     inkscape:label="Layer 1"
     inkscape:groupmode="layer"
     id="layer1"
     transform="translate(129.63293,-481.64701)">
    <g
       id="g5"
       style="fill:none;stroke:#000000;stroke-width:0.08969956;stroke-miterlimit:4;stroke-dasharray:none;stroke-opacity:1"
       transform="matrix(1.2486126,0,0,1.2486126,-129.60817,481.79339)">
      <g
         id="CIRCLE"
         style="fill:none;stroke:#000000;stroke-width:0.08969956;stroke-miterlimit:4;stroke-dasharray:none;stroke-opacity:1">
        <path
           class="st0"
           d="M 6.5,40.5 C 6.5,37.4 9,35 12,35 c 3,0 5.5,2.5 5.5,5.5 0,3 -2.5,5.5 -5.5,5.5 -3,0 -5.5,-2.5 -5.5,-5.5 z"
           id="path8"
           style="fill:none;stroke:#000000;stroke-width:0.08969956;stroke-miterlimit:4;stroke-dasharray:none;stroke-opacity:1"
           inkscape:connector-curvature="0" />
      </g>
      <g
         id="LWPOLYLINE_1_"
         style="fill:none;stroke:#000000;stroke-width:0.08969956;stroke-miterlimit:4;stroke-dasharray:none;stroke-opacity:1">
        <path
           class="st1"
           d="M 6.7,70.7 C -2.2,51.6 -2.2,29.5 6.7,10.3 9.7,4 16,0 22.9,0 h 94.4 c 6.9,0 13.2,4 16.1,10.3 8.9,19.1 8.9,41.2 0,60.4 C 130.5,77 124.2,81 117.3,81 H 22.9 C 16,80.9 9.7,76.9 6.7,70.7 Z"
           id="path11"
           style="fill:none;stroke:#000000;stroke-width:0.08969956;stroke-miterlimit:4;stroke-dasharray:none;stroke-opacity:1"
           inkscape:connector-curvature="0" />
      </g>
    </g>
    <path
       style="fill:#000000;stroke-width:0.35486156"
       d="m -80.927187,552.74442 c 0.272293,-0.0963 0.597643,-0.0846 0.722994,0.0263 0.125356,0.11093 -0.09748,0.18983 -0.495098,0.17533 -0.439434,-0.016 -0.528817,-0.0951 -0.227896,-0.20169 z m 0,-1.00147 c 0.272293,-0.0965 0.597643,-0.0846 0.722994,0.0263 0.125356,0.11094 -0.09748,0.18982 -0.495098,0.17534 -0.439434,-0.016 -0.528817,-0.0951 -0.227896,-0.2017 z m 23.231665,-3.69961 c -0.947527,-0.5599 -1.326132,-1.89658 -1.279563,-4.51753 0.08949,-5.039 0.311978,-4.57427 -2.189604,-4.57427 -2.034181,0 -2.284189,-0.0883 -3.583551,-1.26594 -1.249009,-1.13201 -1.396813,-1.44991 -1.396813,-3.00451 v -1.73853 h -4.526589 c -4.023629,0 -4.61041,-0.0742 -5.281014,-0.66767 -0.414941,-0.36721 -0.754436,-0.9681 -0.754436,-1.33533 0,-0.36719 0.339495,-0.96809 0.754436,-1.33533 0.669084,-0.59213 1.257385,-0.66766 5.200776,-0.66766 h 4.446343 l -0.05638,-1.41877 -0.05639,-1.4188 -4.522676,-0.16691 c -4.937828,-0.18225 -5.766142,-0.46841 -5.766142,-1.99212 0,-1.69932 0.903144,-2.01386 5.782246,-2.01386 2.421426,0 4.413423,-0.11268 4.426664,-0.25037 0.01321,-0.13772 0.0785,-0.74044 0.14511,-1.33942 0.0666,-0.59899 -0.05011,-1.18263 -0.259249,-1.29705 -0.209143,-0.1144 -2.268971,-0.20118 -4.577396,-0.19285 -3.744374,0.0134 -4.288672,-0.0599 -5.045853,-0.6807 -0.998179,-0.81834 -1.068118,-1.48902 -0.261525,-2.50814 0.553325,-0.69911 0.858197,-0.74193 5.281026,-0.74193 h 4.693812 v -1.66918 -1.66916 h -4.656742 c -4.105853,0 -4.733918,-0.0754 -5.30929,-0.63814 -0.919696,-0.89938 -0.643833,-2.41247 0.535635,-2.9379 0.588496,-0.26217 2.538452,-0.42194 5.186712,-0.42502 4.596263,-0.005 4.465549,0.0588 4.007926,-1.96618 l -0.235761,-1.04322 -4.385131,-0.004 c -2.411834,-0.002 -4.588874,-0.11971 -4.837874,-0.25979 -0.773801,-0.4353 -1.176194,-1.83972 -0.759199,-2.6497 0.539833,-1.04861 1.413066,-1.21158 6.021435,-1.12393 l 4.055071,0.0772 v -1.9292 c 0,-1.81729 0.09211,-2.01219 1.587406,-3.3606 1.50768,-1.35953 1.697108,-1.43145 3.772154,-1.43145 h 2.184746 v -4.28804 c 0,-3.73027 0.08976,-4.35997 0.689839,-4.84058 0.926812,-0.74229 2.011429,-0.69613 3.011199,0.12817 0.763951,0.62989 0.825553,0.99111 0.825553,4.84057 v 4.15988 h 1.666711 1.6667 l 0.12509,-4.1389 c 0.10585,-3.50383 0.235341,-4.24658 0.84366,-4.84057 0.97821,-0.95512 2.271316,-0.88355 3.2148,0.17797 0.691171,0.77761 0.78181,1.33886 0.78181,4.84056 v 3.96094 h 1.628371 1.628364 l -0.05745,-3.75559 c -0.05744,-3.75709 0.172926,-4.73547 1.294596,-5.49761 0.874318,-0.59406 1.668544,-0.51693 2.602084,0.25275 0.763947,0.62989 0.825551,0.99111 0.825551,4.84057 v 4.15988 h 1.697473 1.697475 v -4.02114 c 0,-3.82427 0.04526,-4.06127 0.925884,-4.84056 1.188272,-1.05161 2.21882,-1.03934 3.176213,0.0379 0.700539,0.78815 0.743693,1.17815 0.535622,4.84055 l -0.226315,3.98334 h 1.943663 1.943678 v -4.17289 c 0,-3.7278 0.08047,-4.24413 0.754423,-4.84058 0.941468,-0.83317 2.328573,-0.85837 3.147871,-0.0572 0.511767,0.50045 0.624294,1.3729 0.624294,4.84055 v 4.23008 h 2.172866 c 2.034577,0 2.274655,0.0873 3.772156,1.37374 1.529259,1.31359 1.599288,1.46109 1.599288,3.36829 v 1.99455 l 3.160915,-0.23301 c 1.7384956,-0.12818 3.866926,-0.12747 4.7298454,10e-4 2.5105845,0.37538 3.3430433,2.19998 1.6765917,3.67478 -0.4449957,0.3938 -1.5837419,0.50272 -5.2563081,0.50272 h -4.688252 v 1.50224 1.50225 l 4.243673,0.004 c 2.6474485,0.003 4.5983993,0.1629 5.1867132,0.42491 1.2641095,0.56296 1.470652,2.19967 0.3870964,3.06749 -0.6816979,0.54597 -1.3564082,0.61843 -5.2993186,0.56907 l -4.518164,-0.0567 v 1.67014 1.67013 l 4.562979,-0.0829 c 4.3895936,-0.0797 4.5902866,-0.0532 5.2810275,0.70176 0.9024223,0.98625 0.9017814,1.43755 -0.00403,2.42642 -0.6892355,0.75295 -0.9247479,0.7868 -5.2810265,0.75865 -3.906914,-0.0252 -4.567296,0.0464 -4.61333,0.50074 -0.02957,0.29162 -0.09972,1.01844 -0.155784,1.61516 l -0.102059,1.08495 h 4.655433 c 5.1142758,0 5.8461668,0.24376 5.8351876,1.94338 -0.011876,1.78835 -0.3179307,1.89412 -5.5449696,1.91441 l -4.822682,0.0187 -0.115015,1.56698 -0.115015,1.56698 h 4.54725 c 4.0443158,0 4.6307057,0.0739 5.3017005,0.66765 0.9604809,0.85004 0.9604809,1.82064 0,2.67066 -0.6706153,0.59349 -1.2573847,0.66767 -5.2810265,0.66767 h -4.52659 v 1.85309 c 0,1.71438 -0.10585,1.93916 -1.414558,3.00289 -1.293,1.051 -1.615004,1.14994 -3.746966,1.15139 l -2.332408,10e-4 0.02016,3.75561 c 0.0267,4.96968 0.06857,4.76075 -1.044275,5.20949 -0.758545,0.30586 -1.196149,0.2984 -1.980391,-0.0338 -1.003765,-0.42519 -1.006971,-0.43868 -1.112248,-4.67884 l -0.105604,-4.25251 h -1.874812 -1.874811 v 4.33347 4.33344 l -1.037341,0.2425 c -2.664222,0.62281 -3.112032,-0.0919 -3.112032,-4.96723 v -3.94218 h -1.697461 -1.697475 l -0.03349,2.25337 c -0.01845,1.23935 -0.0078,2.93841 0.02421,3.77568 0.07158,1.8882 -0.865132,3.06787 -2.435922,3.06787 -1.769478,0 -2.081312,-0.7673 -2.081312,-5.12113 v -3.90855 l -1.697474,-0.11949 -1.697462,-0.11948 v 4.02806 c 0,4.59236 -0.29044,5.26841 -2.263294,5.26841 -1.965266,0 -2.263294,-0.68243 -2.263294,-5.18256 v -3.94218 h -1.697476 -1.697474 v 4.00598 c 0,3.56088 -0.08387,4.08017 -0.754437,4.67365 -0.773436,0.6845 -1.754155,0.84684 -2.489724,0.41218 z m 26.438952,-18.2929 c 1.771036,-0.74375 2.176087,-1.8786 2.021477,-5.66375 -0.128753,-3.15153 -0.15674,-3.23768 -1.363318,-4.19137 -1.186611,-0.93791 -1.37037,-0.97371 -4.99811,-0.97371 h -3.766213 l -3.79e-4,5.75861 -3.66e-4,5.7586 3.426299,-0.0808 c 2.166404,-0.0511 3.887639,-0.27449 4.680924,-0.60765 z m -5.842868,-5.15367 v -3.67216 h 2.254606 c 2.994546,0 3.553051,0.66241 3.342245,3.96403 -0.191037,2.99197 -0.579273,3.38028 -3.379745,3.38028 h -2.217106 z m -15.762594,4.67363 0.166085,-1.00148 h -4.103289 -4.103287 l -0.585969,-1.24114 c -0.682393,-1.44536 -0.551403,-4.75077 0.220907,-5.57434 0.393364,-0.41947 1.293641,-0.52883 4.353101,-0.52883 h 3.857177 l 0.03218,-1.0015 0.03217,-1.0015 -4.029844,10e-4 c -4.833425,0.001 -6.18795,0.51062 -6.833706,2.56858 -0.859035,2.73773 -0.30444,6.61683 1.140645,7.97814 0.805309,0.75855 1.092268,0.80223 5.269708,0.80223 h 4.418024 z m 8.685802,0.53939 c 1.115415,-0.74951 1.79578,-2.72455 1.79578,-5.21302 0,-3.88799 -1.344475,-5.67516 -4.269385,-5.67516 -3.118274,0 -4.245466,1.70764 -4.106545,6.22118 0.06908,2.24599 0.534991,3.63523 1.514405,4.5161 0.780738,0.70221 4.098237,0.80102 5.065745,0.1509 z m -3.705868,-2.37185 c -0.971667,-1.31239 -1.04876,-4.13327 -0.148746,-5.44301 1.504791,-2.18982 3.392122,-0.70034 3.381538,2.66871 -0.01044,3.13766 -1.816127,4.68774 -3.232792,2.7743 z m 30.02066,1.83246 v -1.00148 h -3.017719 c -2.409986,0 -3.027215,-0.10075 -3.064873,-0.50075 -0.02591,-0.27541 -0.07877,-0.68853 -0.117499,-0.91804 -0.159985,-0.94971 0.664832,-1.25188 3.417113,-1.25188 h 2.782927 v -1.00148 -1.00151 h -3.017717 -3.01773 v -1.32181 -1.32184 l 3.080038,-0.097 c 3.069665,-0.0967 3.080196,-0.10003 3.12449,-1.01499 l 0.04449,-0.91805 h -4.256131 -4.256127 v 5.45259 c 0,2.99893 0.113185,5.55274 0.251475,5.67515 0.138303,0.12241 2.005524,0.22256 4.149369,0.22256 h 3.897898 z m -32.574917,-18.02691 0.04619,-1.0015 h -3.493293 c -4.365558,0 -4.528724,-0.13369 -4.528724,-3.71049 0,-3.45242 0.250847,-3.66675 4.380081,-3.74261 3.153014,-0.0579 3.164659,-0.0614 3.283599,-0.97617 l 0.11934,-0.91801 h -3.79127 c -3.606005,0 -3.847379,0.0448 -4.939817,0.91801 -0.992589,0.79338 -1.179467,1.21824 -1.376258,3.12881 -0.33243,3.22758 0.101801,5.22099 1.384554,6.35623 1.037575,0.91824 1.189659,0.94722 4.969805,0.94722 h 3.89947 z m 5.380194,-1.81077 c -0.0246,-1.54675 0.07328,-2.98117 0.21744,-3.18761 0.460882,-0.65996 1.167232,0.208 1.891076,2.32374 0.677474,1.98017 0.705186,2.00698 2.076066,2.00698 1.308114,0 1.417423,-0.0829 1.867757,-1.4188 0.671154,-1.99074 1.495095,-3.31182 1.920452,-3.07916 0.198625,0.10859 0.36115,1.5407 0.36115,3.18233 v 2.98478 h 1.131643 1.131653 v -5.67513 -5.67514 h -1.609703 -1.60969 l -0.906702,2.08643 c -0.498698,1.14755 -1.129902,2.58792 -1.402676,3.20082 -0.645913,1.45129 -1.247192,1.22522 -2.136007,-0.80316 -0.396833,-0.9056 -0.998872,-2.28442 -1.337869,-3.06407 -0.590983,-1.3592 -0.682341,-1.41759 -2.219527,-1.41879 l -1.603161,-10e-4 v 5.67515 5.67514 h 1.136392 1.136377 z m 22.697155,1.83644 c 0.948585,-0.83948 1.109698,-1.24758 1.15327,-2.92103 0.07905,-3.03549 0.01044,-4.85733 -0.213908,-5.64686 -0.342962,-1.2093 -2.380391,-1.80656 -6.162749,-1.80656 h -3.382885 l -0.233812,1.25185 c -0.12862,0.68852 -0.23568,3.24235 -0.237955,5.67514 l -0.004,4.42328 h 3.989778 c 3.906808,0 4.012715,-0.0203 5.092408,-0.97582 z m -6.567419,-1.24972 c -0.138317,-0.12242 -0.251473,-1.69449 -0.251473,-3.4935 0,-3.60176 0.174613,-3.87174 2.451896,-3.79063 3.223841,0.11474 3.569851,0.52409 3.578395,4.23288 0.004,1.93343 -0.107818,2.30445 -0.833219,2.75413 -0.837837,0.51934 -4.449311,0.73632 -4.945599,0.29712 z"
       id="path3774"
       inkscape:connector-curvature="0"
       inkscape:label="path3774" />
    <flowRoot
       xml:space="preserve"
       id="flowRoot3762"
       style="font-style:normal;font-variant:normal;font-weight:normal;font-stretch:normal;font-size:40px;line-height:1.25;font-family:monospace;-inkscape-font-specification:'monospace, Normal';font-variant-ligatures:normal;font-variant-caps:normal;font-variant-numeric:normal;text-align:start;letter-spacing:0px;word-spacing:0px;writing-mode:lr-tb;text-anchor:start;fill:#000000;fill-opacity:1;stroke:none"><flowRegion
         id="flowRegion3764"><rect
           id="rect3766"
           width="249.64285"
           height="106.78571"
           x="-74.285713"
           y="97.024574" /></flowRegion><flowPara
         id="flowPara3768" /></flowRoot>    <g
       aria-label="Maker of Things"
       transform="matrix(0.93749991,0,0,0.93749991,215.90275,566.69165)"
       style="font-style:normal;font-variant:normal;font-weight:normal;font-stretch:normal;font-size:40px;line-height:1.25;font-family:monospace;-inkscape-font-specification:'monospace, Normal';font-variant-ligatures:normal;font-variant-caps:normal;font-variant-numeric:normal;text-align:start;letter-spacing:0px;word-spacing:0px;writing-mode:lr-tb;text-anchor:start;fill:#000000;fill-opacity:1;stroke:none"
       id="flowRoot3800">
      <path
         d="m -360.04883,-15.99349 h 3.13542 l 3.96875,10.5833336 3.98958,-10.5833336 h 3.13542 v 15.55208375 h -2.05208 V -14.097657 l -4.01042,10.6666673 h -2.11458 l -4.01042,-10.6666673 v 13.65625075 h -2.04167 z"
         style="font-style:normal;font-variant:normal;font-weight:normal;font-stretch:normal;font-size:21.33333397px;font-family:sans-serif;-inkscape-font-specification:'sans-serif, Normal';font-variant-ligatures:normal;font-variant-caps:normal;font-variant-numeric:normal;font-feature-settings:normal;text-align:start;writing-mode:lr-tb;text-anchor:start"
         id="path3816"
         inkscape:connector-curvature="0" />
      <path
         d="m -336.41341,-6.3059898 q -2.32292,0 -3.21875,0.5312501 -0.89583,0.53125 -0.89583,1.8125 0,1.0208334 0.66666,1.6250001 0.67709,0.59375 1.83334,0.59375 1.59375,0 2.55208,-1.1250001 0.96875,-1.1354167 0.96875,-3.0104167 v -0.4270834 z m 3.82292,-0.7916666 v 6.65625015 h -1.91667 V -2.2122396 q -0.65625,1.0625 -1.63542,1.57291668 -0.97916,0.50000001 -2.39583,0.50000001 -1.79167,0 -2.85417,-0.99999999 -1.05208,-1.0104167 -1.05208,-2.6979168 0,-1.96875 1.3125,-2.9687501 1.32292,-1 3.9375,-1 h 2.6875 v -0.1875 q 0,-1.3229167 -0.875,-2.0416672 -0.86458,-0.729166 -2.4375,-0.729166 -1,0 -1.94792,0.239583 -0.94791,0.239583 -1.82291,0.7187501 v -1.7708331 q 1.05208,-0.40625 2.04166,-0.604167 0.98959,-0.208333 1.92709,-0.208333 2.53125,0 3.78125,1.3125 1.25,1.3124998 1.25,3.9791666 z"
         style="font-style:normal;font-variant:normal;font-weight:normal;font-stretch:normal;font-size:21.33333397px;font-family:sans-serif;-inkscape-font-specification:'sans-serif, Normal';font-variant-ligatures:normal;font-variant-caps:normal;font-variant-numeric:normal;font-feature-settings:normal;text-align:start;writing-mode:lr-tb;text-anchor:start"
         id="path3818"
         inkscape:connector-curvature="0" />
      <path
         d="m -328.70508,-16.64974 h 1.92709 v 9.5729169 l 5.71875,-5.0312499 h 2.44791 l -6.1875,5.4583332 6.44792,6.20833355 h -2.5 l -5.92708,-5.69791685 v 5.69791685 h -1.92709 z"
         style="font-style:normal;font-variant:normal;font-weight:normal;font-stretch:normal;font-size:21.33333397px;font-family:sans-serif;-inkscape-font-specification:'sans-serif, Normal';font-variant-ligatures:normal;font-variant-caps:normal;font-variant-numeric:normal;font-feature-settings:normal;text-align:start;writing-mode:lr-tb;text-anchor:start"
         id="path3820"
         inkscape:connector-curvature="0" />
      <path
         d="m -307.02799,-6.7539064 v 0.9375 h -8.8125 q 0.125,1.9791667 1.1875,3.0208334 1.07291,1.03125 2.97916,1.03125 1.10417,0 2.13542,-0.2708333 1.04167,-0.2708333 2.0625,-0.8125 v 1.8125 q -1.03125,0.43750005 -2.11458,0.66666672 -1.08334,0.22916667 -2.19792,0.22916667 -2.79167,0 -4.42708,-1.62500009 -1.625,-1.625 -1.625,-4.3958334 0,-2.8645834 1.54166,-4.5416666 1.55209,-1.6875 4.17709,-1.6875 2.35416,0 3.71875,1.520833 1.375,1.5104168 1.375,4.1145836 z m -1.91667,-0.5625001 q -0.0208,-1.5729167 -0.88542,-2.5104167 -0.85416,-0.9374998 -2.27083,-0.9374998 -1.60417,0 -2.57292,0.9062498 -0.95833,0.90625 -1.10416,2.5520834 z"
         style="font-style:normal;font-variant:normal;font-weight:normal;font-stretch:normal;font-size:21.33333397px;font-family:sans-serif;-inkscape-font-specification:'sans-serif, Normal';font-variant-ligatures:normal;font-variant-caps:normal;font-variant-numeric:normal;font-feature-settings:normal;text-align:start;writing-mode:lr-tb;text-anchor:start"
         id="path3822"
         inkscape:connector-curvature="0" />
      <path
         d="m -297.12174,-10.316407 q -0.32292,-0.1875 -0.70834,-0.270833 -0.375,-0.09375 -0.83333,-0.09375 -1.625,0 -2.5,1.0625001 -0.86458,1.0520834 -0.86458,3.0312501 v 6.14583355 h -1.92709 V -12.108073 h 1.92709 v 1.8125 q 0.60416,-1.0625 1.57291,-1.572917 0.96875,-0.520833 2.35417,-0.520833 0.19792,0 0.4375,0.03125 0.23958,0.02083 0.53125,0.07292 z"
         style="font-style:normal;font-variant:normal;font-weight:normal;font-stretch:normal;font-size:21.33333397px;font-family:sans-serif;-inkscape-font-specification:'sans-serif, Normal';font-variant-ligatures:normal;font-variant-caps:normal;font-variant-numeric:normal;font-feature-settings:normal;text-align:start;writing-mode:lr-tb;text-anchor:start"
         id="path3824"
         inkscape:connector-curvature="0" />
      <path
         d="m -283.77799,-10.764323 q -1.54167,0 -2.4375,1.2083331 -0.89584,1.1979167 -0.89584,3.2916668 0,2.0937501 0.88542,3.3020834 0.89583,1.1979167 2.44792,1.1979167 1.53125,0 2.42708,-1.2083333 0.89583,-1.2083334 0.89583,-3.2916668 0,-2.0729167 -0.89583,-3.2812501 -0.89583,-1.2187498 -2.42708,-1.2187498 z m 0,-1.625 q 2.5,0 3.92708,1.625 1.42708,1.6249998 1.42708,4.4999999 0,2.8645834 -1.42708,4.5000001 -1.42708,1.62500009 -3.92708,1.62500009 -2.51042,0 -3.9375,-1.62500009 -1.41667,-1.6354167 -1.41667,-4.5000001 0,-2.8750001 1.41667,-4.4999999 1.42708,-1.625 3.9375,-1.625 z"
         style="font-style:normal;font-variant:normal;font-weight:normal;font-stretch:normal;font-size:21.33333397px;font-family:sans-serif;-inkscape-font-specification:'sans-serif, Normal';font-variant-ligatures:normal;font-variant-caps:normal;font-variant-numeric:normal;font-feature-settings:normal;text-align:start;writing-mode:lr-tb;text-anchor:start"
         id="path3826"
         inkscape:connector-curvature="0" />
      <path
         d="m -269.35091,-16.64974 v 1.59375 h -1.83333 q -1.03125,0 -1.4375,0.416667 -0.39584,0.416666 -0.39584,1.5 v 1.03125 h 3.15625 v 1.489583 h -3.15625 v 10.17708375 h -1.92708 V -10.61849 h -1.83333 v -1.489583 h 1.83333 v -0.8125 q 0,-1.947917 0.90625,-2.833334 0.90625,-0.895833 2.875,-0.895833 z"
         style="font-style:normal;font-variant:normal;font-weight:normal;font-stretch:normal;font-size:21.33333397px;font-family:sans-serif;-inkscape-font-specification:'sans-serif, Normal';font-variant-ligatures:normal;font-variant-caps:normal;font-variant-numeric:normal;font-feature-settings:normal;text-align:start;writing-mode:lr-tb;text-anchor:start"
         id="path3828"
         inkscape:connector-curvature="0" />
      <path
         d="m -263.03841,-15.99349 h 13.15625 v 1.770833 h -5.52083 v 13.78125075 h -2.11458 V -14.222657 h -5.52084 z"
         style="font-style:normal;font-variant:normal;font-weight:normal;font-stretch:normal;font-size:21.33333397px;font-family:sans-serif;-inkscape-font-specification:'sans-serif, Normal';font-variant-ligatures:normal;font-variant-caps:normal;font-variant-numeric:normal;font-feature-settings:normal;text-align:start;writing-mode:lr-tb;text-anchor:start"
         id="path3830"
         inkscape:connector-curvature="0" />
      <path
         d="m -238.22591,-7.4830731 v 7.04166685 h -1.91667 V -7.4205731 q 0,-1.6562501 -0.64583,-2.4791668 -0.64583,-0.8229171 -1.9375,-0.8229171 -1.55208,0 -2.44792,0.9895838 -0.89583,0.9895834 -0.89583,2.6979168 v 6.59375015 h -1.92708 V -16.64974 h 1.92708 v 6.354167 q 0.6875,-1.052084 1.61458,-1.572917 0.9375,-0.520833 2.15625,-0.520833 2.01042,0 3.04167,1.25 1.03125,1.2395831 1.03125,3.6562499 z"
         style="font-style:normal;font-variant:normal;font-weight:normal;font-stretch:normal;font-size:21.33333397px;font-family:sans-serif;-inkscape-font-specification:'sans-serif, Normal';font-variant-ligatures:normal;font-variant-caps:normal;font-variant-numeric:normal;font-feature-settings:normal;text-align:start;writing-mode:lr-tb;text-anchor:start"
         id="path3832"
         inkscape:connector-curvature="0" />
      <path
         d="m -234.38216,-12.108073 h 1.91667 v 11.66666675 h -1.91667 z m 0,-4.541667 h 1.91667 v 2.427083 h -1.91667 z"
         style="font-style:normal;font-variant:normal;font-weight:normal;font-stretch:normal;font-size:21.33333397px;font-family:sans-serif;-inkscape-font-specification:'sans-serif, Normal';font-variant-ligatures:normal;font-variant-caps:normal;font-variant-numeric:normal;font-feature-settings:normal;text-align:start;writing-mode:lr-tb;text-anchor:start"
         id="path3834"
         inkscape:connector-curvature="0" />
      <path
         d="m -218.76757,-7.4830731 v 7.04166685 h -1.91667 V -7.4205731 q 0,-1.6562501 -0.64583,-2.4791668 -0.64584,-0.8229171 -1.9375,-0.8229171 -1.55209,0 -2.44792,0.9895838 -0.89583,0.9895834 -0.89583,2.6979168 v 6.59375015 h -1.92709 V -12.108073 h 1.92709 v 1.8125 q 0.6875,-1.052084 1.61458,-1.572917 0.9375,-0.520833 2.15625,-0.520833 2.01042,0 3.04167,1.25 1.03125,1.2395831 1.03125,3.6562499 z"
         style="font-style:normal;font-variant:normal;font-weight:normal;font-stretch:normal;font-size:21.33333397px;font-family:sans-serif;-inkscape-font-specification:'sans-serif, Normal';font-variant-ligatures:normal;font-variant-caps:normal;font-variant-numeric:normal;font-feature-settings:normal;text-align:start;writing-mode:lr-tb;text-anchor:start"
         id="path3836"
         inkscape:connector-curvature="0" />
      <path
         d="m -207.24673,-6.4101564 q 0,-2.0833334 -0.86459,-3.2291668 -0.85416,-1.1458338 -2.40625,-1.1458338 -1.54166,0 -2.40625,1.1458338 -0.85416,1.1458334 -0.85416,3.2291668 0,2.0729167 0.85416,3.2187501 0.86459,1.1458333 2.40625,1.1458333 1.55209,0 2.40625,-1.1458333 0.86459,-1.1458334 0.86459,-3.2187501 z m 1.91666,4.5208334 q 0,2.9791668 -1.32291,4.4270835 -1.32292,1.4583334 -4.05209,1.4583334 -1.01041,0 -1.90625,-0.15625 -0.89583,-0.1458334 -1.73958,-0.4583334 V 1.5169271 q 0.84375,0.4583334 1.66667,0.6770834 0.82291,0.21875 1.67708,0.21875 1.88542,0 2.82292,-0.9895834 0.9375,-0.97916666 0.9375,-2.96875 v -0.9479167 q -0.59375,1.03125 -1.52084,1.54166667 -0.92708,0.51041668 -2.21875,0.51041668 -2.14583,0 -3.45833,-1.63541675 -1.3125,-1.6354167 -1.3125,-4.3333334 0,-2.7083334 1.3125,-4.3437506 1.3125,-1.635416 3.45833,-1.635416 1.29167,0 2.21875,0.510416 0.92709,0.510417 1.52084,1.541667 v -1.770833 h 1.91666 z"
         style="font-style:normal;font-variant:normal;font-weight:normal;font-stretch:normal;font-size:21.33333397px;font-family:sans-serif;-inkscape-font-specification:'sans-serif, Normal';font-variant-ligatures:normal;font-variant-caps:normal;font-variant-numeric:normal;font-feature-settings:normal;text-align:start;writing-mode:lr-tb;text-anchor:start"
         id="path3838"
         inkscape:connector-curvature="0" />
      <path
         d="m -193.94466,-11.764323 v 1.8124998 q -0.8125,-0.4166668 -1.6875,-0.6249998 -0.875,-0.208334 -1.8125,-0.208334 -1.42708,0 -2.14583,0.4375 -0.70834,0.4375005 -0.70834,1.3125005 0,0.6666667 0.51042,1.0520834 0.51042,0.375 2.05208,0.71875 l 0.65625,0.1458333 q 2.04167,0.4375 2.89584,1.2395834 0.86458,0.7916667 0.86458,2.2187501 0,1.625 -1.29167,2.5729167 -1.28125,0.94791669 -3.53125,0.94791669 -0.9375,0 -1.95833,-0.1875 -1.01042,-0.17708334 -2.13542,-0.54166669 v -1.9791667 q 1.0625,0.5520833 2.09375,0.8333333 1.03125,0.2708334 2.04167,0.2708334 1.35417,0 2.08333,-0.4583334 0.72917,-0.46875 0.72917,-1.3125 0,-0.78125 -0.53125,-1.1979167 -0.52083,-0.4166667 -2.30208,-0.8020834 l -0.66667,-0.15625 q -1.78125,-0.375 -2.57292,-1.1458333 -0.79166,-0.7812501 -0.79166,-2.1354168 0,-1.6458338 1.16666,-2.5416668 1.16667,-0.895833 3.3125,-0.895833 1.0625,0 2,0.15625 0.9375,0.15625 1.72917,0.46875 z"
         style="font-style:normal;font-variant:normal;font-weight:normal;font-stretch:normal;font-size:21.33333397px;font-family:sans-serif;-inkscape-font-specification:'sans-serif, Normal';font-variant-ligatures:normal;font-variant-caps:normal;font-variant-numeric:normal;font-feature-settings:normal;text-align:start;writing-mode:lr-tb;text-anchor:start"
         id="path3840"
         inkscape:connector-curvature="0" />
    </g>
  </g>
</svg>
