<?xml version="1.0" encoding="UTF-8" standalone="no"?>
<!-- Created with Inkscape (http://www.inkscape.org/) -->

<svg
   xmlns:dc="http://purl.org/dc/elements/1.1/"
   xmlns:cc="http://creativecommons.org/ns#"
   xmlns:rdf="http://www.w3.org/1999/02/22-rdf-syntax-ns#"
   xmlns:svg="http://www.w3.org/2000/svg"
   xmlns="http://www.w3.org/2000/svg"
   xmlns:sodipodi="http://sodipodi.sourceforge.net/DTD/sodipodi-0.dtd"
   xmlns:inkscape="http://www.inkscape.org/namespaces/inkscape"
   width="1.95in"
   height="1.126in"
   viewBox="0 0 175.49999 101.34"
   id="svg4171"
   version="1.1"
   inkscape:version="0.92.3 (2405546, 2018-03-11)"
   sodipodi:docname="cmdc0de-dt.svg">
  <defs
     id="defs4173" />
  <sodipodi:namedview
     id="base"
     pagecolor="#ffffff"
     bordercolor="#666666"
     borderopacity="1.0"
     inkscape:pageopacity="0.0"
     inkscape:pageshadow="2"
     inkscape:zoom="2.8"
     inkscape:cx="42.006151"
     inkscape:cy="3.4642904"
     inkscape:document-units="px"
     inkscape:current-layer="layer1"
     showgrid="false"
     fit-margin-top="0"
     fit-margin-left="0"
     fit-margin-right="0"
     fit-margin-bottom="0"
     inkscape:window-width="2165"
     inkscape:window-height="1048"
     inkscape:window-x="2179"
     inkscape:window-y="1943"
     inkscape:window-maximized="0"
     units="in" />
  <metadata
     id="metadata4176">
    <rdf:RDF>
      <cc:Work
         rdf:about="">
        <dc:format>image/svg+xml</dc:format>
        <dc:type
           rdf:resource="http://purl.org/dc/dcmitype/StillImage" />
        <dc:title></dc:title>
      </cc:Work>
    </rdf:RDF>
  </metadata>
  <g
     inkscape:label="Layer 1"
     inkscape:groupmode="layer"
     id="layer1"
     transform="translate(129.63293,-481.64701)">
    <g
       id="g5"
       style="fill:none;stroke:#000000;stroke-width:0.08969956;stroke-miterlimit:4;stroke-dasharray:none;stroke-opacity:1"
       transform="matrix(1.2486126,0,0,1.2486126,-129.60817,481.79339)">
      <g
         id="CIRCLE"
         style="fill:none;stroke:#000000;stroke-width:0.08969956;stroke-miterlimit:4;stroke-dasharray:none;stroke-opacity:1">
        <path
           class="st0"
           d="M 6.5,40.5 C 6.5,37.4 9,35 12,35 c 3,0 5.5,2.5 5.5,5.5 0,3 -2.5,5.5 -5.5,5.5 -3,0 -5.5,-2.5 -5.5,-5.5 l 0,0 z"
           id="path8"
           style="fill:none;stroke:#000000;stroke-width:0.08969956;stroke-miterlimit:4;stroke-dasharray:none;stroke-opacity:1"
           inkscape:connector-curvature="0" />
      </g>
      <g
         id="LWPOLYLINE_1_"
         style="fill:none;stroke:#000000;stroke-width:0.08969956;stroke-miterlimit:4;stroke-dasharray:none;stroke-opacity:1">
        <path
           class="st1"
           d="M 6.7,70.7 C -2.2,51.6 -2.2,29.5 6.7,10.3 9.7,4 16,0 22.9,0 l 94.4,0 c 6.9,0 13.2,4 16.1,10.3 8.9,19.1 8.9,41.2 0,60.4 C 130.5,77 124.2,81 117.3,81 L 22.9,81 C 16,80.9 9.7,76.9 6.7,70.7 Z"
           id="path11"
           style="fill:none;stroke:#000000;stroke-width:0.08969956;stroke-miterlimit:4;stroke-dasharray:none;stroke-opacity:1"
           inkscape:connector-curvature="0" />
      </g>
    </g>
    <path
       style="fill:#000000;stroke-width:0.2882883"
       d="m -70.589305,549.42397 c 0.2081,-0.0833 0.45675,-0.073 0.55255,0.0227 0.0958,0.0958 -0.0745,0.16394 -0.37838,0.15142 -0.33584,-0.0138 -0.40415,-0.0821 -0.17417,-0.17417 z m 0,-0.86487 c 0.2081,-0.0833 0.45675,-0.073 0.55255,0.0227 0.0958,0.0958 -0.0745,0.16393 -0.37838,0.15141 -0.33584,-0.0138 -0.40415,-0.0821 -0.17417,-0.17417 z m 17.75487,-3.19487 c -0.72415,-0.48352 -1.0135,-1.63783 -0.97791,-3.90121 0.0684,-4.35156 0.23843,-3.95023 -1.67341,-3.95023 -1.55463,0 -1.7457,-0.0763 -2.73874,-1.09323 -0.95456,-0.97756 -1.06752,-1.2521 -1.06752,-2.5946 v -1.50136 h -3.45946 c -3.07507,0 -3.52352,-0.0641 -4.03603,-0.57657 -0.31712,-0.31712 -0.57658,-0.83604 -0.57658,-1.15316 0,-0.31711 0.25946,-0.83603 0.57658,-1.15315 0.51135,-0.51136 0.96096,-0.57658 3.97471,-0.57658 h 3.39813 l -0.0431,-1.22522 -0.0431,-1.22523 -3.45647,-0.14414 c -3.77375,-0.15738 -4.40679,-0.40451 -4.40679,-1.72035 0,-1.46748 0.69023,-1.73911 4.4191,-1.73911 1.85058,0 3.37297,-0.0973 3.38309,-0.21622 0.0101,-0.11892 0.06,-0.63942 0.1109,-1.15668 0.0509,-0.51726 -0.0383,-1.02129 -0.19813,-1.12009 -0.15984,-0.0988 -1.73407,-0.17374 -3.49829,-0.16655 -2.86165,0.0116 -3.27763,-0.0518 -3.85631,-0.58783 -0.76286,-0.70669 -0.81631,-1.28587 -0.19987,-2.16596 0.42288,-0.60373 0.65588,-0.64072 4.03604,-0.64072 h 3.58726 v -1.44145 -1.44144 h -3.55893 c -3.13791,0 -3.61791,-0.0652 -4.05764,-0.55108 -0.70288,-0.77668 -0.49205,-2.08334 0.40936,-2.53709 0.44976,-0.2264 1.94002,-0.36439 3.96396,-0.36704 3.51271,-0.005 3.41281,0.0508 3.06307,-1.69794 l -0.18018,-0.9009 -3.35135,-0.004 c -1.84325,-0.002 -3.50706,-0.10338 -3.69736,-0.22435 -0.59138,-0.37592 -0.89891,-1.58873 -0.58022,-2.28821 0.41257,-0.90554 1.07994,-1.04629 4.6019,-0.97059 l 3.0991,0.0666 v -1.666 c 0,-1.56937 0.0704,-1.73768 1.21318,-2.90213 1.15225,-1.17406 1.29702,-1.23614 2.88288,-1.23614 h 1.6697 v -3.70306 c 0,-3.22135 0.0686,-3.76514 0.52721,-4.18018 0.70832,-0.64102 1.53724,-0.60115 2.30132,0.11069 0.58385,0.54394 0.63093,0.85588 0.63093,4.18018 v 3.59237 h 1.27379 1.27378 l 0.0956,-3.57426 c 0.0809,-3.02581 0.17986,-3.66723 0.64477,-4.18018 0.7476,-0.82482 1.73586,-0.76301 2.45692,0.15368 0.52823,0.67153 0.5975,1.1562 0.5975,4.18018 v 3.42058 h 1.24449 1.24448 l -0.0439,-3.24324 c -0.0439,-3.24453 0.13216,-4.08942 0.9894,-4.74759 0.6682,-0.51302 1.27519,-0.4464 1.98865,0.21828 0.58385,0.54394 0.63093,0.85588 0.63093,4.18018 v 3.59237 h 1.2973 1.2973 v -3.47256 c 0,-3.30254 0.0346,-3.50721 0.70761,-4.18018 0.90814,-0.90814 1.69574,-0.89754 2.42743,0.0327 0.53539,0.68063 0.56837,1.01743 0.40935,4.18018 l -0.17296,3.4399 h 1.48545 1.48546 v -3.6036 c 0,-3.21922 0.0615,-3.66511 0.57657,-4.18018 0.71952,-0.71951 1.77962,-0.74127 2.40577,-0.0494 0.39112,0.43218 0.47712,1.18561 0.47712,4.18018 v 3.65297 h 1.66062 c 1.55493,0 1.73841,0.0755 2.88288,1.18633 1.16874,1.13438 1.22226,1.26176 1.22226,2.90877 v 1.72243 l 2.41574,-0.20123 c 1.32865,-0.11068 2.95531,-0.11007 3.6148,10e-4 1.91872,0.32417 2.55493,1.89985 1.28134,3.17344 -0.34009,0.34008 -1.21038,0.43414 -4.01715,0.43414 h -3.58301 v 1.2973 1.29729 l 3.24324,0.004 c 2.02332,0.003 3.51434,0.14067 3.96396,0.36694 0.9661,0.48616 1.12395,1.89958 0.29584,2.649 -0.52099,0.47149 -1.03664,0.53406 -4.05002,0.49143 l -3.45302,-0.0489 v 1.44228 1.44228 l 3.48727,-0.0717 c 3.35476,-0.0689 3.50814,-0.0459 4.03604,0.60603 0.68968,0.85171 0.68919,1.24143 -0.003,2.09539 -0.52675,0.65023 -0.70674,0.67945 -4.03604,0.65515 -2.98587,-0.0218 -3.49057,0.0401 -3.52575,0.43243 -0.0226,0.25183 -0.0762,0.87949 -0.11906,1.3948 l -0.078,0.93694 h 3.55793 c 3.9086,0 4.46795,0.2105 4.45956,1.67825 -0.009,1.54436 -0.24298,1.63571 -4.23776,1.65324 l -3.68575,0.0162 -0.0879,1.3532 -0.0879,1.3532 h 3.47525 c 3.09088,0 3.53903,0.0638 4.05184,0.57657 0.73405,0.73406 0.73405,1.57225 0,2.30631 -0.51252,0.51251 -0.96096,0.57658 -4.03604,0.57658 h -3.45946 v 1.60028 c 0,1.4805 -0.0809,1.6746 -1.08108,2.59322 -0.98818,0.9076 -1.23427,0.99305 -2.86363,0.99431 l -1.78255,10e-4 0.0154,3.24324 c 0.0204,4.29167 0.0524,4.11125 -0.79809,4.49877 -0.57972,0.26413 -0.91416,0.25768 -1.51352,-0.0292 -0.76713,-0.36719 -0.76958,-0.37885 -0.85004,-4.04053 l -0.0807,-3.67235 h -1.43283 -1.43283 v 3.74226 3.74225 l -0.79279,0.20942 c -2.03614,0.53784 -2.37838,-0.0794 -2.37838,-4.28957 v -3.40436 h -1.29729 -1.2973 l -0.0256,1.94595 c -0.0141,1.07027 -0.006,2.53753 0.0185,3.26057 0.0547,1.6306 -0.66118,2.64934 -1.86166,2.64934 -1.35233,0 -1.59065,-0.66262 -1.59065,-4.42247 v -3.37533 l -1.2973,-0.10318 -1.29729,-0.10318 v 3.47851 c 0,3.96585 -0.22197,4.54967 -1.72973,4.54967 -1.50196,0 -1.72973,-0.58933 -1.72973,-4.47552 v -3.40436 h -1.2973 -1.2973 v 3.45946 c 0,3.07508 -0.0641,3.52352 -0.57658,4.03604 -0.5911,0.5911 -1.34062,0.73131 -1.90278,0.35594 z m 20.20605,-15.79725 c 1.35352,-0.64228 1.66308,-1.62232 1.54492,-4.89107 -0.0984,-2.72158 -0.11979,-2.79597 -1.04192,-3.61955 -0.90687,-0.80995 -1.04731,-0.84087 -3.81982,-0.84087 h -2.87834 l -2.9e-4,4.97298 -2.8e-4,4.97297 2.61856,-0.0697 c 1.65568,-0.0441 2.97114,-0.23704 3.57741,-0.52474 z m -4.46543,-4.45058 v -3.17118 h 1.72309 c 2.28859,0 2.71543,0.57204 2.55432,3.42323 -0.146,2.58379 -0.44271,2.91912 -2.58298,2.91912 h -1.69443 z m -12.04661,4.03603 0.12693,-0.86486 h -3.13595 -3.13595 l -0.44783,-1.07181 c -0.52152,-1.24818 -0.42141,-4.10265 0.16883,-4.81385 0.30063,-0.36224 0.98867,-0.45669 3.32687,-0.45669 h 2.94786 l 0.0246,-0.86486 0.0246,-0.86487 -3.07982,10e-4 c -3.69396,10e-4 -4.72916,0.44096 -5.22268,2.21816 -0.65652,2.36422 -0.23267,5.71411 0.87174,6.8897 0.61546,0.65506 0.83477,0.69279 4.02739,0.69279 h 3.37649 z m 6.63815,0.46579 c 0.85246,-0.64725 1.37243,-2.35284 1.37243,-4.50182 0,-3.35756 -1.02752,-4.90091 -3.26289,-4.90091 -2.38315,0 -3.24461,1.47467 -3.13844,5.37244 0.0528,1.93957 0.40887,3.13929 1.15739,3.89999 0.59668,0.6064 3.13209,0.69173 3.87151,0.1303 z m -2.83222,-2.04826 c -0.7426,-1.13335 -0.80152,-3.56938 -0.11368,-4.70043 1.15004,-1.89108 2.59244,-0.6048 2.58435,2.30462 -0.008,2.70959 -1.38798,4.04821 -2.47067,2.39581 z m 22.94338,1.58247 v -0.86486 h -2.3063 c -1.84184,0 -2.31356,-0.0871 -2.34234,-0.43244 -0.0198,-0.23783 -0.0602,-0.59459 -0.0898,-0.79279 -0.12227,-0.82013 0.5081,-1.08108 2.61154,-1.08108 h 2.12686 v -0.86486 -0.86487 h -2.3063 -2.30631 v -1.14149 -1.1415 l 2.35393,-0.0837 c 2.346,-0.0835 2.35405,-0.0864 2.3879,-0.87652 l 0.034,-0.7928 h -3.25276 -3.25276 v 4.70871 c 0,2.58979 0.0865,4.7952 0.19219,4.9009 0.1057,0.10571 1.53273,0.1922 3.17117,0.1922 h 2.97898 z m -24.89548,-15.56757 0.0353,-0.86486 h -2.66976 c -3.33639,0 -3.46109,-0.11545 -3.46109,-3.20427 0,-2.98142 0.19171,-3.16652 3.34749,-3.23202 2.4097,-0.05 2.4186,-0.053 2.5095,-0.84299 l 0.0912,-0.79279 h -2.89749 c -2.7559,0 -2.94037,0.0387 -3.77527,0.79279 -0.75859,0.68514 -0.90141,1.05203 -1.05181,2.70194 -0.25406,2.78726 0.0778,4.50871 1.05815,5.48907 0.79297,0.79297 0.9092,0.818 3.79819,0.818 h 2.98018 z m 4.11183,-1.56372 c -0.0188,-1.33573 0.056,-2.57446 0.16618,-2.75274 0.35223,-0.56992 0.89206,0.17963 1.44526,2.00671 0.51776,1.71004 0.53894,1.73318 1.58664,1.73318 0.99973,0 1.08327,-0.0717 1.42744,-1.22523 0.51293,-1.71915 1.14263,-2.85999 1.46771,-2.65908 0.1518,0.0938 0.27601,1.3305 0.27601,2.74817 v 2.57758 h 0.86486 0.86487 v -4.9009 -4.9009 h -1.23022 -1.23021 l -0.69295,1.8018 c -0.38113,0.99099 -0.86353,2.23485 -1.072,2.76413 -0.49364,1.25331 -0.95317,1.05807 -1.63245,-0.69358 -0.30328,-0.78205 -0.76339,-1.97277 -1.02247,-2.64605 -0.45166,-1.17376 -0.52148,-1.22419 -1.69628,-1.22522 l -1.22522,-10e-4 v 4.9009 4.9009 h 0.86849 0.86848 z m 17.34637,1.5859 c 0.72496,-0.72496 0.84809,-1.07738 0.88139,-2.52252 0.0604,-2.62137 0.008,-4.19466 -0.16348,-4.87648 -0.26211,-1.04433 -1.81922,-1.56011 -4.7099,-1.56011 h -2.58538 l -0.17869,1.08108 c -0.0983,0.59459 -0.18012,2.8 -0.18186,4.9009 l -0.003,3.81982 h 3.0492 c 2.98579,0 3.06673,-0.0175 3.89189,-0.84269 z m -5.01917,-1.07923 c -0.10571,-0.10571 -0.19219,-1.46331 -0.19219,-3.01689 0,-3.11038 0.13345,-3.34352 1.87387,-3.27349 2.46383,0.0991 2.72827,0.45259 2.7348,3.65541 0.003,1.66966 -0.0824,1.99006 -0.63679,2.37838 -0.64032,0.4485 -3.4004,0.63587 -3.77969,0.25659 z"
       id="path3774"
       inkscape:connector-curvature="0" />
    <flowRoot
       xml:space="preserve"
       id="flowRoot3762"
       style="fill:black;fill-opacity:1;stroke:none;font-family:monospace;font-style:normal;font-weight:normal;font-size:40px;line-height:1.25;letter-spacing:0px;word-spacing:0px;-inkscape-font-specification:'monospace, Normal';font-stretch:normal;font-variant:normal;text-anchor:start;text-align:start;writing-mode:lr;font-variant-ligatures:normal;font-variant-caps:normal;font-variant-numeric:normal"><flowRegion
         id="flowRegion3764"><rect
           id="rect3766"
           width="249.64285"
           height="106.78571"
           x="-74.285713"
           y="97.024574" /></flowRegion><flowPara
         id="flowPara3768"></flowPara></flowRoot>    <g
       aria-label="Maker Of Things"
       style="font-style:normal;font-variant:normal;font-weight:normal;font-stretch:normal;font-size:37.49999619px;line-height:1.25;font-family:monospace;-inkscape-font-specification:'monospace, Normal';font-variant-ligatures:normal;font-variant-caps:normal;font-variant-numeric:normal;text-align:start;letter-spacing:0px;word-spacing:0px;writing-mode:lr-tb;text-anchor:start;fill:#000000;fill-opacity:1;stroke:none;stroke-width:0.93749988"
       id="text3772">
      <path
         d="m -105.56554,559.32868 h 1.97753 l 1.88965,5.5664 1.904299,-5.5664 h 1.984863 v 10.93505 h -1.369628 v -9.66064 l -1.948244,5.76416 h -1.1206 l -1.95557,-5.76416 v 9.66064 h -1.3623 z"
         style="font-style:normal;font-variant:normal;font-weight:normal;font-stretch:normal;font-size:14.99999809px;font-family:monospace;-inkscape-font-specification:'monospace, Normal';font-variant-ligatures:normal;font-variant-caps:normal;font-variant-numeric:normal;font-feature-settings:normal;text-align:start;writing-mode:lr-tb;text-anchor:start;stroke-width:0.93749988"
         id="path3776" />
      <path
         d="m -92.030389,566.1402 h -0.446778 q -1.179199,0 -1.779785,0.41748 -0.593261,0.41015 -0.593261,1.23047 0,0.73974 0.446777,1.1499 0.446777,0.41016 1.237793,0.41016 1.113281,0 1.750488,-0.76905 0.637207,-0.77636 0.644531,-2.13867 v -0.30029 z m 2.614745,-0.55664 v 4.68017 h -1.35498 v -1.21582 q -0.432129,0.73242 -1.091308,1.08399 -0.651856,0.34424 -1.589356,0.34424 -1.252441,0 -1.999511,-0.70313 -0.74707,-0.71045 -0.74707,-1.89697 0,-1.36963 0.915527,-2.08008 0.922851,-0.71045 2.702636,-0.71045 h 1.809082 v -0.2124 q -0.0073,-0.98145 -0.498047,-1.4209 -0.490722,-0.44678 -1.567382,-0.44678 -0.688477,0 -1.391602,0.19776 -0.703125,0.19775 -1.369629,0.57861 v -1.34766 q 0.747071,-0.28564 1.428223,-0.4248 0.688476,-0.14648 1.333008,-0.14648 1.018066,0 1.735839,0.30029 0.725098,0.30029 1.171875,0.90088 0.27832,0.36621 0.395508,0.9082 0.117187,0.53467 0.117187,1.61133 z"
         style="font-style:normal;font-variant:normal;font-weight:normal;font-stretch:normal;font-size:14.99999809px;font-family:monospace;-inkscape-font-specification:'monospace, Normal';font-variant-ligatures:normal;font-variant-caps:normal;font-variant-numeric:normal;font-feature-settings:normal;text-align:start;writing-mode:lr-tb;text-anchor:start;stroke-width:0.93749988"
         id="path3778" />
      <path
         d="m -86.420038,558.86725 h 1.391601 v 6.59912 l 3.537597,-3.40576 h 1.640625 l -3.22998,3.09082 3.735351,5.1123 h -1.647949 l -3.032226,-4.23339 -1.003418,0.94482 v 3.28857 h -1.391601 z"
         style="font-style:normal;font-variant:normal;font-weight:normal;font-stretch:normal;font-size:14.99999809px;font-family:monospace;-inkscape-font-specification:'monospace, Normal';font-variant-ligatures:normal;font-variant-caps:normal;font-variant-numeric:normal;font-feature-settings:normal;text-align:start;writing-mode:lr-tb;text-anchor:start;stroke-width:0.93749988"
         id="path3780" />
      <path
         d="m -70.980588,565.82526 v 0.65918 h -5.837402 v 0.0439 q 0,1.34033 0.695801,2.07276 0.703125,0.73242 1.977539,0.73242 0.644531,0 1.347656,-0.20508 0.703125,-0.20508 1.501465,-0.62256 v 1.34033 q -0.769043,0.31494 -1.486817,0.46875 -0.710449,0.16114 -1.376953,0.16114 -1.91162,0 -2.98828,-1.14258 -1.07666,-1.1499 -1.07666,-3.16406 0,-1.9629 1.054687,-3.13477 1.054687,-1.17187 2.8125,-1.17187 1.567382,0 2.468261,1.06201 0.908203,1.06201 0.908203,2.90039 z m -1.347656,-0.39551 q -0.0293,-1.18652 -0.563965,-1.80176 -0.527344,-0.62256 -1.523437,-0.62256 -0.974121,0 -1.604004,0.64453 -0.629883,0.64454 -0.74707,1.78711 z"
         style="font-style:normal;font-variant:normal;font-weight:normal;font-stretch:normal;font-size:14.99999809px;font-family:monospace;-inkscape-font-specification:'monospace, Normal';font-variant-ligatures:normal;font-variant-caps:normal;font-variant-numeric:normal;font-feature-settings:normal;text-align:start;writing-mode:lr-tb;text-anchor:start;stroke-width:0.93749988"
         id="path3782" />
      <path
         d="m -61.642209,563.7525 q -0.432129,-0.33691 -0.878906,-0.49072 -0.446778,-0.15381 -0.981446,-0.15381 -1.259765,0 -1.926269,0.79102 -0.666504,0.79101 -0.666504,2.28515 v 4.07959 h -1.35498 v -8.20312 h 1.35498 v 1.604 q 0.336914,-0.87158 1.032715,-1.333 0.703125,-0.46875 1.662598,-0.46875 0.498046,0 0.930175,0.12451 0.432129,0.12451 0.827637,0.38818 z"
         style="font-style:normal;font-variant:normal;font-weight:normal;font-stretch:normal;font-size:14.99999809px;font-family:monospace;-inkscape-font-specification:'monospace, Normal';font-variant-ligatures:normal;font-variant-caps:normal;font-variant-numeric:normal;font-feature-settings:normal;text-align:start;writing-mode:lr-tb;text-anchor:start;stroke-width:0.93749988"
         id="path3784" />
      <path
         d="m -45.426392,564.80719 q 0,-2.40967 -0.498047,-3.44238 -0.490723,-1.03272 -1.618652,-1.03272 -1.120606,0 -1.618653,1.03272 -0.490722,1.03271 -0.490722,3.44238 0,2.40234 0.490722,3.43506 0.498047,1.03271 1.618653,1.03271 1.127929,0 1.618652,-1.02539 0.498047,-1.03271 0.498047,-3.44238 z m 1.54541,0 q 0,2.85645 -0.908203,4.2627 -0.900879,1.40625 -2.753906,1.40625 -1.853028,0 -2.753906,-1.39893 -0.900879,-1.39893 -0.900879,-4.27002 0,-2.86377 0.900879,-4.27002 0.908203,-1.40625 2.753906,-1.40625 1.853027,0 2.753906,1.40625 0.908203,1.40625 0.908203,4.27002 z"
         style="font-style:normal;font-variant:normal;font-weight:normal;font-stretch:normal;font-size:14.99999809px;font-family:monospace;-inkscape-font-specification:'monospace, Normal';font-variant-ligatures:normal;font-variant-caps:normal;font-variant-numeric:normal;font-feature-settings:normal;text-align:start;writing-mode:lr-tb;text-anchor:start;stroke-width:0.93749988"
         id="path3786" />
      <path
         d="m -35.245729,558.86725 v 1.12061 h -1.530761 q -0.725098,0 -1.010742,0.30029 -0.27832,0.29297 -0.27832,1.04736 v 0.7251 h 2.819823 v 1.04736 h -2.819823 v 7.15576 h -1.347656 v -7.15576 h -2.189942 v -1.04736 h 2.189942 v -0.57129 q 0,-1.34766 0.615234,-1.98486 0.622558,-0.63721 1.933593,-0.63721 z"
         style="font-style:normal;font-variant:normal;font-weight:normal;font-stretch:normal;font-size:14.99999809px;font-family:monospace;-inkscape-font-specification:'monospace, Normal';font-variant-ligatures:normal;font-variant-caps:normal;font-variant-numeric:normal;font-feature-settings:normal;text-align:start;writing-mode:lr-tb;text-anchor:start;stroke-width:0.93749988"
         id="path3788" />
      <path
         d="m -24.640259,559.32868 h 8.342284 v 1.24511 h -3.420409 v 9.68994 h -1.486817 v -9.68994 h -3.435058 z"
         style="font-style:normal;font-variant:normal;font-weight:normal;font-stretch:normal;font-size:14.99999809px;font-family:monospace;-inkscape-font-specification:'monospace, Normal';font-variant-ligatures:normal;font-variant-caps:normal;font-variant-numeric:normal;font-feature-settings:normal;text-align:start;writing-mode:lr-tb;text-anchor:start;stroke-width:0.93749988"
         id="path3790" />
      <path
         d="m -8.2633066,565.18073 v 5.083 h -1.3549803 v -5.083 q 0,-1.10596 -0.3881831,-1.62598 -0.388184,-0.52002 -1.215821,-0.52002 -0.944824,0 -1.457519,0.67383 -0.505371,0.6665 -0.505371,1.91894 v 4.63623 h -1.347656 v -11.39648 h 1.347656 v 4.42383 q 0.358887,-0.70313 0.974121,-1.06201 0.615234,-0.36621 1.457519,-0.36621 1.2524415,0 1.8676758,0.82763 0.6225586,0.82031 0.6225586,2.49024 z"
         style="font-style:normal;font-variant:normal;font-weight:normal;font-stretch:normal;font-size:14.99999809px;font-family:monospace;-inkscape-font-specification:'monospace, Normal';font-variant-ligatures:normal;font-variant-caps:normal;font-variant-numeric:normal;font-feature-settings:normal;text-align:start;writing-mode:lr-tb;text-anchor:start;stroke-width:0.93749988"
         id="path3792" />
      <path
         d="m -5.0626223,562.06061 h 3.4497066 v 7.15576 h 2.6733395 v 1.04736 h -6.6943351 v -1.04736 h 2.6733395 v -6.1084 h -2.1020505 z m 2.1020505,-3.19336 h 1.3476561 v 1.70654 h -1.3476561 z"
         style="font-style:normal;font-variant:normal;font-weight:normal;font-stretch:normal;font-size:14.99999809px;font-family:monospace;-inkscape-font-specification:'monospace, Normal';font-variant-ligatures:normal;font-variant-caps:normal;font-variant-numeric:normal;font-feature-settings:normal;text-align:start;writing-mode:lr-tb;text-anchor:start;stroke-width:0.93749988"
         id="path3794" />
      <path
         d="m 9.7835607,565.18073 v 5.083 H 8.4285804 v -5.083 q 0,-1.10596 -0.3881835,-1.62598 -0.3881836,-0.52002 -1.2158202,-0.52002 -0.9448241,0 -1.4575193,0.67383 -0.505371,0.6665 -0.505371,1.91894 v 4.63623 H 3.5140303 v -8.20312 h 1.3476561 v 1.23047 q 0.3588866,-0.70313 0.9741209,-1.06201 0.6152343,-0.36621 1.4575194,-0.36621 1.2524412,0 1.8676755,0.82763 0.6225585,0.82031 0.6225585,2.49024 z"
         style="font-style:normal;font-variant:normal;font-weight:normal;font-stretch:normal;font-size:14.99999809px;font-family:monospace;-inkscape-font-specification:'monospace, Normal';font-variant-ligatures:normal;font-variant-caps:normal;font-variant-numeric:normal;font-feature-settings:normal;text-align:start;writing-mode:lr-tb;text-anchor:start;stroke-width:0.93749988"
         id="path3796" />
      <path
         d="m 17.393424,566.09625 q 0,-1.51611 -0.498047,-2.2998 -0.490722,-0.79102 -1.435546,-0.79102 -0.98877,0 -1.508789,0.79102 -0.52002,0.78369 -0.52002,2.2998 0,1.51612 0.52002,2.31446 0.527343,0.79101 1.523437,0.79101 0.930176,0 1.420898,-0.79834 0.498047,-0.79834 0.498047,-2.30713 z m 1.347656,3.64014 q 0,1.8457 -0.871582,2.79785 -0.871582,0.95215 -2.563476,0.95215 -0.55664,0 -1.164551,-0.10254 -0.60791,-0.10254 -1.21582,-0.30029 v -1.33301 q 0.717774,0.33691 1.303711,0.49805 0.585938,0.16113 1.07666,0.16113 1.091309,0 1.589355,-0.59326 0.498047,-0.59326 0.498047,-1.88233 v -0.0586 -0.91553 q -0.322265,0.68848 -0.878906,1.02539 -0.556641,0.33692 -1.35498,0.33692 -1.435547,0 -2.29248,-1.14991 -0.856934,-1.1499 -0.856934,-3.07617 0,-1.93359 0.856934,-3.08349 0.856933,-1.1499 2.29248,-1.1499 0.791015,0 1.340332,0.31494 0.549316,0.31494 0.893554,0.97412 v -1.06201 h 1.347656 z"
         style="font-style:normal;font-variant:normal;font-weight:normal;font-stretch:normal;font-size:14.99999809px;font-family:monospace;-inkscape-font-specification:'monospace, Normal';font-variant-ligatures:normal;font-variant-caps:normal;font-variant-numeric:normal;font-feature-settings:normal;text-align:start;writing-mode:lr-tb;text-anchor:start;stroke-width:0.93749988"
         id="path3798" />
      <path
         d="m 27.259147,562.34625 v 1.31836 q -0.578613,-0.33691 -1.164551,-0.50537 -0.585937,-0.16846 -1.193847,-0.16846 -0.915528,0 -1.369629,0.3003 -0.446777,0.29297 -0.446777,0.90088 0,0.54931 0.336914,0.82031 0.336914,0.27099 1.677245,0.52734 l 0.541993,0.10254 q 1.003417,0.19043 1.516113,0.76172 0.520019,0.57129 0.520019,1.48682 0,1.21582 -0.864258,1.90429 -0.864257,0.68116 -2.402343,0.68116 -0.60791,0 -1.274414,-0.13184 -0.666504,-0.12451 -1.442871,-0.38086 v -1.3916 q 0.754395,0.38818 1.442871,0.58594 0.688477,0.19043 1.303711,0.19043 0.893554,0 1.384277,-0.35889 0.490723,-0.36621 0.490723,-1.01807 0,-0.9375 -1.794434,-1.29638 l -0.05859,-0.0147 -0.505371,-0.10254 q -1.164551,-0.22705 -1.699219,-0.76172 -0.534668,-0.54199 -0.534668,-1.47217 0,-1.1792 0.79834,-1.8164 0.79834,-0.64453 2.277832,-0.64453 0.659179,0 1.267089,0.12451 0.60791,0.11718 1.193848,0.35888 z"
         style="font-style:normal;font-variant:normal;font-weight:normal;font-stretch:normal;font-size:14.99999809px;font-family:monospace;-inkscape-font-specification:'monospace, Normal';font-variant-ligatures:normal;font-variant-caps:normal;font-variant-numeric:normal;font-feature-settings:normal;text-align:start;writing-mode:lr-tb;text-anchor:start;stroke-width:0.93749988"
         id="path3800" />
    </g>
  </g>
</svg>
