<?xml version="1.0" encoding="UTF-8" standalone="no"?>
<!-- Created with Inkscape (http://www.inkscape.org/) -->

<svg
   xmlns:dc="http://purl.org/dc/elements/1.1/"
   xmlns:cc="http://creativecommons.org/ns#"
   xmlns:rdf="http://www.w3.org/1999/02/22-rdf-syntax-ns#"
   xmlns:svg="http://www.w3.org/2000/svg"
   xmlns="http://www.w3.org/2000/svg"
   xmlns:sodipodi="http://sodipodi.sourceforge.net/DTD/sodipodi-0.dtd"
   xmlns:inkscape="http://www.inkscape.org/namespaces/inkscape"
   width="1.95in"
   height="1.126in"
   viewBox="0 0 175.49999 101.34"
   id="svg4171"
   version="1.1"
   inkscape:version="0.92.3 (2405546, 2018-03-11)"
   sodipodi:docname="cmdc0de-dt.svg">
  <defs
     id="defs4173" />
  <sodipodi:namedview
     id="base"
     pagecolor="#ffffff"
     bordercolor="#666666"
     borderopacity="1.0"
     inkscape:pageopacity="0.0"
     inkscape:pageshadow="2"
     inkscape:zoom="2.8"
     inkscape:cx="165.39901"
     inkscape:cy="55.250004"
     inkscape:document-units="px"
     inkscape:current-layer="layer1"
     showgrid="false"
     fit-margin-top="0"
     fit-margin-left="0"
     fit-margin-right="0"
     fit-margin-bottom="0"
     inkscape:window-width="3018"
     inkscape:window-height="1548"
     inkscape:window-x="2179"
     inkscape:window-y="1943"
     inkscape:window-maximized="0"
     units="in"
     inkscape:snap-grids="true" />
  <metadata
     id="metadata4176">
    <rdf:RDF>
      <cc:Work
         rdf:about="">
        <dc:format>image/svg+xml</dc:format>
        <dc:type
           rdf:resource="http://purl.org/dc/dcmitype/StillImage" />
        <dc:title />
      </cc:Work>
    </rdf:RDF>
  </metadata>
  <g
     inkscape:label="Layer 1"
     inkscape:groupmode="layer"
     id="layer1"
     transform="translate(129.63293,-481.64701)">
    <g
       id="g5"
       style="fill:none;stroke:#000000;stroke-width:0.08969956;stroke-miterlimit:4;stroke-dasharray:none;stroke-opacity:1"
       transform="matrix(1.2486126,0,0,1.2486126,-129.60817,481.79339)">
      <g
         id="CIRCLE"
         style="fill:none;stroke:#000000;stroke-width:0.08969956;stroke-miterlimit:4;stroke-dasharray:none;stroke-opacity:1">
        <path
           class="st0"
           d="M 6.5,40.5 C 6.5,37.4 9,35 12,35 c 3,0 5.5,2.5 5.5,5.5 0,3 -2.5,5.5 -5.5,5.5 -3,0 -5.5,-2.5 -5.5,-5.5 z"
           id="path8"
           style="fill:none;stroke:#000000;stroke-width:0.08969956;stroke-miterlimit:4;stroke-dasharray:none;stroke-opacity:1"
           inkscape:connector-curvature="0" />
      </g>
      <g
         id="LWPOLYLINE_1_"
         style="fill:none;stroke:#000000;stroke-width:0.08969956;stroke-miterlimit:4;stroke-dasharray:none;stroke-opacity:1">
        <path
           class="st1"
           d="M 6.7,70.7 C -2.2,51.6 -2.2,29.5 6.7,10.3 9.7,4 16,0 22.9,0 h 94.4 c 6.9,0 13.2,4 16.1,10.3 8.9,19.1 8.9,41.2 0,60.4 C 130.5,77 124.2,81 117.3,81 H 22.9 C 16,80.9 9.7,76.9 6.7,70.7 Z"
           id="path11"
           style="fill:none;stroke:#000000;stroke-width:0.08969956;stroke-miterlimit:4;stroke-dasharray:none;stroke-opacity:1"
           inkscape:connector-curvature="0" />
      </g>
    </g>
    <path
       style="fill:#000000;stroke-width:0.36890334"
       d="m -80.930005,558.63055 c 0.267944,-0.10577 0.588096,-0.0929 0.711445,0.0289 0.123353,0.12182 -0.09592,0.20847 -0.487189,0.19255 -0.432414,-0.0176 -0.52037,-0.10444 -0.224256,-0.2215 z m 0,-1.09987 c 0.267944,-0.10598 0.588096,-0.0929 0.711445,0.0289 0.123353,0.12184 -0.09592,0.20847 -0.487189,0.19257 -0.432414,-0.0176 -0.52037,-0.10444 -0.224256,-0.22152 z m 22.860541,-4.0631 c -0.93239,-0.61491 -1.304947,-2.08292 -1.259122,-4.96137 0.08806,-5.53409 0.306994,-5.0237 -2.154625,-5.0237 -2.001685,0 -2.247699,-0.097 -3.526304,-1.39032 -1.229056,-1.24322 -1.374499,-1.59235 -1.374499,-3.2997 v -1.90934 h -4.454277 c -3.959352,0 -4.53676,-0.0815 -5.196651,-0.73327 -0.408312,-0.40329 -0.742384,-1.06321 -0.742384,-1.46652 0,-0.40327 0.334072,-1.06321 0.742384,-1.46653 0.658396,-0.6503 1.237299,-0.73326 5.117695,-0.73326 h 4.375312 l -0.05548,-1.55816 -0.05549,-1.5582 -4.450427,-0.18331 c -4.858946,-0.20016 -5.674028,-0.51443 -5.674028,-2.18784 0,-1.86628 0.888716,-2.21172 5.689875,-2.21172 2.382744,0 4.342919,-0.12376 4.355949,-0.27497 0.013,-0.15125 0.07725,-0.81319 0.142792,-1.47102 0.06553,-0.65784 -0.04931,-1.29882 -0.255109,-1.42449 -0.205801,-0.12564 -2.232723,-0.22094 -4.504271,-0.21179 -3.684558,0.0147 -4.220161,-0.0658 -4.965246,-0.74758 -0.982234,-0.89874 -1.051055,-1.63532 -0.257348,-2.75456 0.544486,-0.76781 0.844488,-0.81483 5.196662,-0.81483 h 4.618829 v -1.83318 -1.83315 h -4.582351 c -4.040262,0 -4.658294,-0.0828 -5.224474,-0.70084 -0.905005,-0.98774 -0.633548,-2.64949 0.527078,-3.22655 0.579094,-0.28792 2.4979,-0.46339 5.103855,-0.46677 4.522838,-0.006 4.394212,0.0646 3.943899,-2.15936 l -0.231994,-1.14572 -4.315079,-0.004 c -2.373306,-0.002 -4.515567,-0.13148 -4.760589,-0.28531 -0.76144,-0.47808 -1.157405,-2.02048 -0.747071,-2.91004 0.531208,-1.15164 1.390492,-1.33062 5.925242,-1.23435 l 3.990292,0.0848 v -2.11874 c 0,-1.99584 0.09064,-2.2099 1.562047,-3.69079 1.483595,-1.4931 1.669997,-1.57208 3.711894,-1.57208 h 2.149845 v -4.70934 c 0,-4.09677 0.08832,-4.78834 0.67882,-5.31617 0.912006,-0.81522 1.979296,-0.76453 2.963095,0.14077 0.751747,0.69177 0.812364,1.08848 0.812364,5.31615 v 4.56859 h 1.640086 1.640074 l 0.123092,-4.54555 c 0.104159,-3.84808 0.231582,-4.66381 0.830183,-5.31616 0.962583,-1.04896 2.235031,-0.97036 3.163444,0.19546 0.680129,0.85401 0.76932,1.4704 0.76932,5.31615 v 4.3501 h 1.602358 1.602351 l -0.05653,-4.12458 c -0.05652,-4.12622 0.170163,-5.20073 1.273914,-6.03775 0.860351,-0.65242 1.64189,-0.56772 2.560517,0.27759 0.751743,0.69177 0.812362,1.08848 0.812362,5.31615 v 4.56859 h 1.670356 1.670358 v -4.41622 c 0,-4.20001 0.04453,-4.46029 0.911094,-5.31614 1.169289,-1.15493 2.183374,-1.14146 3.125473,0.0416 0.689348,0.86559 0.731812,1.2939 0.527065,5.31613 l -0.2227,4.37471 h 1.912613 1.912628 v -4.58288 c 0,-4.09405 0.07919,-4.66111 0.742372,-5.31617 0.926428,-0.91503 2.291374,-0.9427 3.097584,-0.0628 0.503591,0.54962 0.61432,1.5078 0.61432,5.31614 v 4.64568 h 2.138156 c 2.002074,0 2.238317,0.0959 3.711895,1.50871 1.50483,1.44265 1.57374,1.60464 1.57374,3.69923 v 2.19051 l 3.110419,-0.25591 c 1.710723,-0.14076 3.8051526,-0.13999 4.6542869,10e-4 2.4704782,0.41226 3.2896385,2.41612 1.6498083,4.03582 -0.437887,0.4325 -1.5584417,0.55211 -5.1723392,0.55211 h -4.613358 v 1.64984 1.64985 l 4.175882,0.004 c 2.6051551,0.003 4.5249396,0.1789 5.1038552,0.46666 1.2439154,0.61827 1.4471584,2.41578 0.3809125,3.36887 -0.6708078,0.59961 -1.3347396,0.67919 -5.2146627,0.62498 l -4.445987,-0.0623 v 1.83423 1.83422 l 4.490086,-0.091 c 4.3194706,-0.0876 4.5169576,-0.0584 5.1966639,0.7707 0.8880062,1.08315 0.8873755,1.57879 -0.00397,2.66482 -0.678225,0.82692 -0.9099751,0.8641 -5.1966629,0.83318 -3.844502,-0.0277 -4.494334,0.051 -4.539632,0.54994 -0.0291,0.32027 -0.09813,1.1185 -0.153296,1.77385 l -0.100428,1.19155 h 4.581062 c 5.0325764,0 5.7527755,0.26771 5.7419718,2.13431 -0.011686,1.96406 -0.3128518,2.08022 -5.4563888,2.1025 l -4.745641,0.0206 -0.113178,1.72093 -0.113177,1.72094 h 4.474608 c 3.9797085,0 4.5567308,0.0812 5.2170066,0.73324 0.9451372,0.93355 0.9451372,1.99952 0,2.93305 -0.6599023,0.6518 -1.2372981,0.73327 -5.1966626,0.73327 h -4.454279 v 2.03515 c 0,1.88283 -0.104159,2.12969 -1.391961,3.29793 -1.272344,1.15426 -1.589204,1.26292 -3.687108,1.26452 l -2.295148,9.9e-4 0.01984,4.1246 c 0.02628,5.45795 0.06747,5.2285 -1.027593,5.72132 -0.746428,0.33591 -1.177041,0.32772 -1.948755,-0.0372 -0.98773,-0.46696 -0.990884,-0.48178 -1.09448,-5.13853 l -0.103916,-4.67032 h -1.844862 -1.844861 v 4.75923 4.7592 l -1.02077,0.26633 c -2.621661,0.68399 -3.062318,-0.10093 -3.062318,-5.45527 v -4.32949 h -1.670344 -1.670358 l -0.03296,2.47476 c -0.01816,1.36112 -0.0077,3.22711 0.02382,4.14664 0.07043,2.07372 -0.851312,3.36929 -2.397009,3.36929 -1.74121,0 -2.048063,-0.84269 -2.048063,-5.62429 v -4.29256 l -1.670357,-0.13122 -1.670345,-0.13123 v 4.42382 c 0,5.04356 -0.2858,5.78603 -2.227138,5.78603 -1.933871,0 -2.227138,-0.74948 -2.227138,-5.69175 v -4.32949 h -1.670359 -1.670357 v 4.39957 c 0,3.91073 -0.08253,4.48104 -0.742385,5.13283 -0.761081,0.75175 -1.726132,0.93004 -2.449951,0.45268 z m 26.016592,-20.09017 c 1.742744,-0.81682 2.141324,-2.06318 1.989184,-6.22022 -0.126697,-3.46116 -0.154237,-3.55577 -1.341539,-4.60316 -1.167655,-1.03007 -1.348478,-1.06939 -4.918266,-1.06939 h -3.706048 l -3.72e-4,6.32439 -3.61e-4,6.32439 3.371564,-0.0888 c 2.131796,-0.0562 3.825534,-0.30146 4.606147,-0.66736 z m -5.749529,-5.66002 v -4.03295 h 2.218589 c 2.946709,0 3.496291,0.7275 3.288853,4.35349 -0.187985,3.28593 -0.570019,3.71239 -3.325754,3.71239 h -2.181688 z m -15.510788,5.13281 0.163432,-1.09988 h -4.037739 -4.037738 l -0.576607,-1.36308 c -0.671492,-1.58737 -0.542595,-5.21753 0.217378,-6.12201 0.387079,-0.46068 1.272975,-0.58079 4.28356,-0.58079 h 3.795559 l 0.03166,-1.09989 0.03165,-1.09991 -3.965468,10e-4 c -4.75621,9.9e-4 -6.089097,0.56079 -6.724538,2.82094 -0.845311,3.00671 -0.299576,7.26693 1.122424,8.76198 0.792444,0.83308 1.074819,0.88106 5.185525,0.88106 h 4.347445 z m 8.547048,0.59239 c 1.097595,-0.82315 1.767092,-2.99224 1.767092,-5.7252 0,-4.26999 -1.322998,-6.23275 -4.201182,-6.23275 -3.06846,0 -4.177645,1.87542 -4.040943,6.83241 0.06798,2.46666 0.526444,3.99239 1.490212,4.95981 0.768266,0.7712 4.032768,0.87972 4.984821,0.16573 z m -3.646668,-2.60488 c -0.956145,-1.44134 -1.032005,-4.53937 -0.146369,-5.97779 1.480752,-2.40497 3.337933,-0.76915 3.327517,2.93091 -0.01028,3.44593 -1.787113,5.14831 -3.181148,3.04688 z m 29.541082,2.01249 v -1.09988 h -2.969511 c -2.371486,0 -2.978855,-0.11064 -3.015911,-0.54994 -0.0255,-0.30247 -0.07751,-0.75618 -0.115622,-1.00824 -0.15743,-1.04301 0.65421,-1.37487 3.362524,-1.37487 h 2.738471 v -1.09988 -1.09991 h -2.96951 -2.969522 v -1.45167 -1.45171 l 3.030834,-0.10654 c 3.020628,-0.1062 3.030991,-0.10986 3.074577,-1.11471 l 0.04378,-1.00825 h -4.188139 -4.188136 v 5.98831 c 0,3.29357 0.111377,6.09829 0.247458,6.23273 0.136094,0.13444 1.973486,0.24442 4.083083,0.24442 h 3.835629 z m -32.054535,-19.79804 0.04546,-1.09991 h -3.437489 c -4.295818,0 -4.456377,-0.14682 -4.456377,-4.07504 0,-3.79162 0.246839,-4.02701 4.310109,-4.11032 3.102645,-0.0636 3.114104,-0.0674 3.231144,-1.07208 l 0.117434,-1.0082 h -3.730705 c -3.5484,0 -3.785917,0.0492 -4.860904,1.0082 -0.976732,0.87133 -1.160625,1.33793 -1.354272,3.43622 -0.327119,3.54468 0.100174,5.73394 1.362435,6.98073 1.021,1.00845 1.170655,1.04028 4.890413,1.04028 h 3.837176 z m 5.294246,-1.98868 c -0.02421,-1.69872 0.07211,-3.27407 0.213967,-3.5008 0.453519,-0.7248 1.148585,0.22844 1.860866,2.55204 0.666651,2.17473 0.69392,2.20418 2.0429,2.20418 1.287218,0 1.394781,-0.091 1.837921,-1.5582 0.660432,-2.18634 1.47121,-3.63721 1.889773,-3.38169 0.195452,0.11926 0.35538,1.69207 0.35538,3.49499 v 3.27804 h 1.113566 1.113574 v -6.23271 -6.23272 h -1.583988 -1.583975 l -0.892218,2.29142 c -0.490731,1.2603 -1.111852,2.84218 -1.380268,3.51529 -0.635595,1.59388 -1.227268,1.3456 -2.101884,-0.88206 -0.390494,-0.99458 -0.982915,-2.50886 -1.316497,-3.36512 -0.581542,-1.49273 -0.671441,-1.55687 -2.18407,-1.55818 l -1.577551,-9.9e-4 v 6.23273 6.23272 h 1.118239 1.118223 z m 22.33457,2.01686 c 0.933431,-0.92196 1.09197,-1.37015 1.134846,-3.20802 0.07779,-3.33372 0.01028,-5.33455 -0.21049,-6.20166 -0.337483,-1.32811 -2.342365,-1.98405 -6.0643,-1.98405 h -3.328844 l -0.230077,1.37484 c -0.126565,0.75616 -0.231914,3.56091 -0.234153,6.23272 l -0.004,4.85787 h 3.926042 c 3.844397,0 3.948612,-0.0223 5.011056,-1.0717 z m -6.462505,-1.3725 c -0.136108,-0.13445 -0.247456,-1.86097 -0.247456,-3.83674 0,-3.95563 0.171823,-4.25213 2.412727,-4.16306 3.172341,0.12601 3.512823,0.57558 3.521231,4.64876 0.004,2.1234 -0.106096,2.53087 -0.819908,3.02472 -0.824453,0.57037 -4.378235,0.80867 -4.866594,0.32632 z"
       id="path3774"
       inkscape:connector-curvature="0"
       inkscape:label="path3774" />
    <flowRoot
       xml:space="preserve"
       id="flowRoot3762"
       style="font-style:normal;font-variant:normal;font-weight:normal;font-stretch:normal;font-size:40px;line-height:1.25;font-family:monospace;-inkscape-font-specification:'monospace, Normal';font-variant-ligatures:normal;font-variant-caps:normal;font-variant-numeric:normal;text-align:start;letter-spacing:0px;word-spacing:0px;writing-mode:lr-tb;text-anchor:start;fill:#000000;fill-opacity:1;stroke:none"><flowRegion
         id="flowRegion3764"><rect
           id="rect3766"
           width="249.64285"
           height="106.78571"
           x="-74.285713"
           y="97.024574" /></flowRegion><flowPara
         id="flowPara3768" /></flowRoot>    <g
       aria-label="Maker of Things"
       transform="matrix(0.93749991,0,0,0.93749991,217.39563,570.7516)"
       style="font-style:normal;font-variant:normal;font-weight:normal;font-stretch:normal;font-size:40px;line-height:1.25;font-family:monospace;-inkscape-font-specification:'monospace, Normal';font-variant-ligatures:normal;font-variant-caps:normal;font-variant-numeric:normal;text-align:start;letter-spacing:0px;word-spacing:0px;writing-mode:lr-tb;text-anchor:start;fill:#000000;fill-opacity:1;stroke:none"
       id="flowRoot3800">
      <path
         d="m -360.04883,-15.99349 h 3.13542 l 3.96875,10.5833336 3.98958,-10.5833336 h 3.13542 v 15.55208375 h -2.05208 V -14.097657 l -4.01042,10.6666673 h -2.11458 l -4.01042,-10.6666673 v 13.65625075 h -2.04167 z"
         style="font-style:normal;font-variant:normal;font-weight:normal;font-stretch:normal;font-size:21.33333397px;font-family:sans-serif;-inkscape-font-specification:'sans-serif, Normal';font-variant-ligatures:normal;font-variant-caps:normal;font-variant-numeric:normal;font-feature-settings:normal;text-align:start;writing-mode:lr-tb;text-anchor:start"
         id="path3816"
         inkscape:connector-curvature="0" />
      <path
         d="m -336.41341,-6.3059898 q -2.32292,0 -3.21875,0.5312501 -0.89583,0.53125 -0.89583,1.8125 0,1.0208334 0.66666,1.6250001 0.67709,0.59375 1.83334,0.59375 1.59375,0 2.55208,-1.1250001 0.96875,-1.1354167 0.96875,-3.0104167 v -0.4270834 z m 3.82292,-0.7916666 v 6.65625015 h -1.91667 V -2.2122396 q -0.65625,1.0625 -1.63542,1.57291668 -0.97916,0.50000001 -2.39583,0.50000001 -1.79167,0 -2.85417,-0.99999999 -1.05208,-1.0104167 -1.05208,-2.6979168 0,-1.96875 1.3125,-2.9687501 1.32292,-1 3.9375,-1 h 2.6875 v -0.1875 q 0,-1.3229167 -0.875,-2.0416672 -0.86458,-0.729166 -2.4375,-0.729166 -1,0 -1.94792,0.239583 -0.94791,0.239583 -1.82291,0.7187501 v -1.7708331 q 1.05208,-0.40625 2.04166,-0.604167 0.98959,-0.208333 1.92709,-0.208333 2.53125,0 3.78125,1.3125 1.25,1.3124998 1.25,3.9791666 z"
         style="font-style:normal;font-variant:normal;font-weight:normal;font-stretch:normal;font-size:21.33333397px;font-family:sans-serif;-inkscape-font-specification:'sans-serif, Normal';font-variant-ligatures:normal;font-variant-caps:normal;font-variant-numeric:normal;font-feature-settings:normal;text-align:start;writing-mode:lr-tb;text-anchor:start"
         id="path3818"
         inkscape:connector-curvature="0" />
      <path
         d="m -328.70508,-16.64974 h 1.92709 v 9.5729169 l 5.71875,-5.0312499 h 2.44791 l -6.1875,5.4583332 6.44792,6.20833355 h -2.5 l -5.92708,-5.69791685 v 5.69791685 h -1.92709 z"
         style="font-style:normal;font-variant:normal;font-weight:normal;font-stretch:normal;font-size:21.33333397px;font-family:sans-serif;-inkscape-font-specification:'sans-serif, Normal';font-variant-ligatures:normal;font-variant-caps:normal;font-variant-numeric:normal;font-feature-settings:normal;text-align:start;writing-mode:lr-tb;text-anchor:start"
         id="path3820"
         inkscape:connector-curvature="0" />
      <path
         d="m -307.02799,-6.7539064 v 0.9375 h -8.8125 q 0.125,1.9791667 1.1875,3.0208334 1.07291,1.03125 2.97916,1.03125 1.10417,0 2.13542,-0.2708333 1.04167,-0.2708333 2.0625,-0.8125 v 1.8125 q -1.03125,0.43750005 -2.11458,0.66666672 -1.08334,0.22916667 -2.19792,0.22916667 -2.79167,0 -4.42708,-1.62500009 -1.625,-1.625 -1.625,-4.3958334 0,-2.8645834 1.54166,-4.5416666 1.55209,-1.6875 4.17709,-1.6875 2.35416,0 3.71875,1.520833 1.375,1.5104168 1.375,4.1145836 z m -1.91667,-0.5625001 q -0.0208,-1.5729167 -0.88542,-2.5104167 -0.85416,-0.9374998 -2.27083,-0.9374998 -1.60417,0 -2.57292,0.9062498 -0.95833,0.90625 -1.10416,2.5520834 z"
         style="font-style:normal;font-variant:normal;font-weight:normal;font-stretch:normal;font-size:21.33333397px;font-family:sans-serif;-inkscape-font-specification:'sans-serif, Normal';font-variant-ligatures:normal;font-variant-caps:normal;font-variant-numeric:normal;font-feature-settings:normal;text-align:start;writing-mode:lr-tb;text-anchor:start"
         id="path3822"
         inkscape:connector-curvature="0" />
      <path
         d="m -297.12174,-10.316407 q -0.32292,-0.1875 -0.70834,-0.270833 -0.375,-0.09375 -0.83333,-0.09375 -1.625,0 -2.5,1.0625001 -0.86458,1.0520834 -0.86458,3.0312501 v 6.14583355 h -1.92709 V -12.108073 h 1.92709 v 1.8125 q 0.60416,-1.0625 1.57291,-1.572917 0.96875,-0.520833 2.35417,-0.520833 0.19792,0 0.4375,0.03125 0.23958,0.02083 0.53125,0.07292 z"
         style="font-style:normal;font-variant:normal;font-weight:normal;font-stretch:normal;font-size:21.33333397px;font-family:sans-serif;-inkscape-font-specification:'sans-serif, Normal';font-variant-ligatures:normal;font-variant-caps:normal;font-variant-numeric:normal;font-feature-settings:normal;text-align:start;writing-mode:lr-tb;text-anchor:start"
         id="path3824"
         inkscape:connector-curvature="0" />
      <path
         d="m -283.77799,-10.764323 q -1.54167,0 -2.4375,1.2083331 -0.89584,1.1979167 -0.89584,3.2916668 0,2.0937501 0.88542,3.3020834 0.89583,1.1979167 2.44792,1.1979167 1.53125,0 2.42708,-1.2083333 0.89583,-1.2083334 0.89583,-3.2916668 0,-2.0729167 -0.89583,-3.2812501 -0.89583,-1.2187498 -2.42708,-1.2187498 z m 0,-1.625 q 2.5,0 3.92708,1.625 1.42708,1.6249998 1.42708,4.4999999 0,2.8645834 -1.42708,4.5000001 -1.42708,1.62500009 -3.92708,1.62500009 -2.51042,0 -3.9375,-1.62500009 -1.41667,-1.6354167 -1.41667,-4.5000001 0,-2.8750001 1.41667,-4.4999999 1.42708,-1.625 3.9375,-1.625 z"
         style="font-style:normal;font-variant:normal;font-weight:normal;font-stretch:normal;font-size:21.33333397px;font-family:sans-serif;-inkscape-font-specification:'sans-serif, Normal';font-variant-ligatures:normal;font-variant-caps:normal;font-variant-numeric:normal;font-feature-settings:normal;text-align:start;writing-mode:lr-tb;text-anchor:start"
         id="path3826"
         inkscape:connector-curvature="0" />
      <path
         d="m -269.35091,-16.64974 v 1.59375 h -1.83333 q -1.03125,0 -1.4375,0.416667 -0.39584,0.416666 -0.39584,1.5 v 1.03125 h 3.15625 v 1.489583 h -3.15625 v 10.17708375 h -1.92708 V -10.61849 h -1.83333 v -1.489583 h 1.83333 v -0.8125 q 0,-1.947917 0.90625,-2.833334 0.90625,-0.895833 2.875,-0.895833 z"
         style="font-style:normal;font-variant:normal;font-weight:normal;font-stretch:normal;font-size:21.33333397px;font-family:sans-serif;-inkscape-font-specification:'sans-serif, Normal';font-variant-ligatures:normal;font-variant-caps:normal;font-variant-numeric:normal;font-feature-settings:normal;text-align:start;writing-mode:lr-tb;text-anchor:start"
         id="path3828"
         inkscape:connector-curvature="0" />
      <path
         d="m -263.03841,-15.99349 h 13.15625 v 1.770833 h -5.52083 v 13.78125075 h -2.11458 V -14.222657 h -5.52084 z"
         style="font-style:normal;font-variant:normal;font-weight:normal;font-stretch:normal;font-size:21.33333397px;font-family:sans-serif;-inkscape-font-specification:'sans-serif, Normal';font-variant-ligatures:normal;font-variant-caps:normal;font-variant-numeric:normal;font-feature-settings:normal;text-align:start;writing-mode:lr-tb;text-anchor:start"
         id="path3830"
         inkscape:connector-curvature="0" />
      <path
         d="m -238.22591,-7.4830731 v 7.04166685 h -1.91667 V -7.4205731 q 0,-1.6562501 -0.64583,-2.4791668 -0.64583,-0.8229171 -1.9375,-0.8229171 -1.55208,0 -2.44792,0.9895838 -0.89583,0.9895834 -0.89583,2.6979168 v 6.59375015 h -1.92708 V -16.64974 h 1.92708 v 6.354167 q 0.6875,-1.052084 1.61458,-1.572917 0.9375,-0.520833 2.15625,-0.520833 2.01042,0 3.04167,1.25 1.03125,1.2395831 1.03125,3.6562499 z"
         style="font-style:normal;font-variant:normal;font-weight:normal;font-stretch:normal;font-size:21.33333397px;font-family:sans-serif;-inkscape-font-specification:'sans-serif, Normal';font-variant-ligatures:normal;font-variant-caps:normal;font-variant-numeric:normal;font-feature-settings:normal;text-align:start;writing-mode:lr-tb;text-anchor:start"
         id="path3832"
         inkscape:connector-curvature="0" />
      <path
         d="m -234.38216,-12.108073 h 1.91667 v 11.66666675 h -1.91667 z m 0,-4.541667 h 1.91667 v 2.427083 h -1.91667 z"
         style="font-style:normal;font-variant:normal;font-weight:normal;font-stretch:normal;font-size:21.33333397px;font-family:sans-serif;-inkscape-font-specification:'sans-serif, Normal';font-variant-ligatures:normal;font-variant-caps:normal;font-variant-numeric:normal;font-feature-settings:normal;text-align:start;writing-mode:lr-tb;text-anchor:start"
         id="path3834"
         inkscape:connector-curvature="0" />
      <path
         d="m -218.76757,-7.4830731 v 7.04166685 h -1.91667 V -7.4205731 q 0,-1.6562501 -0.64583,-2.4791668 -0.64584,-0.8229171 -1.9375,-0.8229171 -1.55209,0 -2.44792,0.9895838 -0.89583,0.9895834 -0.89583,2.6979168 v 6.59375015 h -1.92709 V -12.108073 h 1.92709 v 1.8125 q 0.6875,-1.052084 1.61458,-1.572917 0.9375,-0.520833 2.15625,-0.520833 2.01042,0 3.04167,1.25 1.03125,1.2395831 1.03125,3.6562499 z"
         style="font-style:normal;font-variant:normal;font-weight:normal;font-stretch:normal;font-size:21.33333397px;font-family:sans-serif;-inkscape-font-specification:'sans-serif, Normal';font-variant-ligatures:normal;font-variant-caps:normal;font-variant-numeric:normal;font-feature-settings:normal;text-align:start;writing-mode:lr-tb;text-anchor:start"
         id="path3836"
         inkscape:connector-curvature="0" />
      <path
         d="m -207.24673,-6.4101564 q 0,-2.0833334 -0.86459,-3.2291668 -0.85416,-1.1458338 -2.40625,-1.1458338 -1.54166,0 -2.40625,1.1458338 -0.85416,1.1458334 -0.85416,3.2291668 0,2.0729167 0.85416,3.2187501 0.86459,1.1458333 2.40625,1.1458333 1.55209,0 2.40625,-1.1458333 0.86459,-1.1458334 0.86459,-3.2187501 z m 1.91666,4.5208334 q 0,2.9791668 -1.32291,4.4270835 -1.32292,1.4583334 -4.05209,1.4583334 -1.01041,0 -1.90625,-0.15625 -0.89583,-0.1458334 -1.73958,-0.4583334 V 1.5169271 q 0.84375,0.4583334 1.66667,0.6770834 0.82291,0.21875 1.67708,0.21875 1.88542,0 2.82292,-0.9895834 0.9375,-0.97916666 0.9375,-2.96875 v -0.9479167 q -0.59375,1.03125 -1.52084,1.54166667 -0.92708,0.51041668 -2.21875,0.51041668 -2.14583,0 -3.45833,-1.63541675 -1.3125,-1.6354167 -1.3125,-4.3333334 0,-2.7083334 1.3125,-4.3437506 1.3125,-1.635416 3.45833,-1.635416 1.29167,0 2.21875,0.510416 0.92709,0.510417 1.52084,1.541667 v -1.770833 h 1.91666 z"
         style="font-style:normal;font-variant:normal;font-weight:normal;font-stretch:normal;font-size:21.33333397px;font-family:sans-serif;-inkscape-font-specification:'sans-serif, Normal';font-variant-ligatures:normal;font-variant-caps:normal;font-variant-numeric:normal;font-feature-settings:normal;text-align:start;writing-mode:lr-tb;text-anchor:start"
         id="path3838"
         inkscape:connector-curvature="0" />
      <path
         d="m -193.94466,-11.764323 v 1.8124998 q -0.8125,-0.4166668 -1.6875,-0.6249998 -0.875,-0.208334 -1.8125,-0.208334 -1.42708,0 -2.14583,0.4375 -0.70834,0.4375005 -0.70834,1.3125005 0,0.6666667 0.51042,1.0520834 0.51042,0.375 2.05208,0.71875 l 0.65625,0.1458333 q 2.04167,0.4375 2.89584,1.2395834 0.86458,0.7916667 0.86458,2.2187501 0,1.625 -1.29167,2.5729167 -1.28125,0.94791669 -3.53125,0.94791669 -0.9375,0 -1.95833,-0.1875 -1.01042,-0.17708334 -2.13542,-0.54166669 v -1.9791667 q 1.0625,0.5520833 2.09375,0.8333333 1.03125,0.2708334 2.04167,0.2708334 1.35417,0 2.08333,-0.4583334 0.72917,-0.46875 0.72917,-1.3125 0,-0.78125 -0.53125,-1.1979167 -0.52083,-0.4166667 -2.30208,-0.8020834 l -0.66667,-0.15625 q -1.78125,-0.375 -2.57292,-1.1458333 -0.79166,-0.7812501 -0.79166,-2.1354168 0,-1.6458338 1.16666,-2.5416668 1.16667,-0.895833 3.3125,-0.895833 1.0625,0 2,0.15625 0.9375,0.15625 1.72917,0.46875 z"
         style="font-style:normal;font-variant:normal;font-weight:normal;font-stretch:normal;font-size:21.33333397px;font-family:sans-serif;-inkscape-font-specification:'sans-serif, Normal';font-variant-ligatures:normal;font-variant-caps:normal;font-variant-numeric:normal;font-feature-settings:normal;text-align:start;writing-mode:lr-tb;text-anchor:start"
         id="path3840"
         inkscape:connector-curvature="0" />
    </g>
  </g>
</svg>
