<?xml version="1.0" encoding="UTF-8" standalone="no"?>
<!-- Created with Inkscape (http://www.inkscape.org/) -->

<svg
   xmlns:dc="http://purl.org/dc/elements/1.1/"
   xmlns:cc="http://creativecommons.org/ns#"
   xmlns:rdf="http://www.w3.org/1999/02/22-rdf-syntax-ns#"
   xmlns:svg="http://www.w3.org/2000/svg"
   xmlns="http://www.w3.org/2000/svg"
   xmlns:sodipodi="http://sodipodi.sourceforge.net/DTD/sodipodi-0.dtd"
   xmlns:inkscape="http://www.inkscape.org/namespaces/inkscape"
   width="1.95in"
   height="1.126in"
   viewBox="0 0 175.49999 101.34"
   id="svg4171"
   version="1.1"
   inkscape:version="0.92.3 (2405546, 2018-03-11)"
   sodipodi:docname="badminton.svg">
  <defs
     id="defs4173" />
  <sodipodi:namedview
     id="base"
     pagecolor="#ffffff"
     bordercolor="#666666"
     borderopacity="1.0"
     inkscape:pageopacity="0.0"
     inkscape:pageshadow="2"
     inkscape:zoom="2.8"
     inkscape:cx="-8.8867057"
     inkscape:cy="50.624813"
     inkscape:document-units="px"
     inkscape:current-layer="layer1"
     showgrid="false"
     fit-margin-top="0"
     fit-margin-left="0"
     fit-margin-right="0"
     fit-margin-bottom="0"
     inkscape:window-width="2880"
     inkscape:window-height="1668"
     inkscape:window-x="2418"
     inkscape:window-y="1783"
     inkscape:window-maximized="0"
     units="in" />
  <metadata
     id="metadata4176">
    <rdf:RDF>
      <cc:Work
         rdf:about="">
        <dc:format>image/svg+xml</dc:format>
        <dc:type
           rdf:resource="http://purl.org/dc/dcmitype/StillImage" />
        <dc:title />
      </cc:Work>
    </rdf:RDF>
  </metadata>
  <g
     inkscape:label="Layer 1"
     inkscape:groupmode="layer"
     id="layer1"
     transform="translate(129.63293,-481.64701)">
    <g
       id="g5"
       style="fill:none;stroke:#000000;stroke-width:0.08969956;stroke-miterlimit:4;stroke-dasharray:none;stroke-opacity:1"
       transform="matrix(1.2486126,0,0,1.2486126,-129.60817,481.79339)">
      <g
         id="CIRCLE"
         style="fill:none;stroke:#000000;stroke-width:0.08969956;stroke-miterlimit:4;stroke-dasharray:none;stroke-opacity:1">
        <path
           class="st0"
           d="M 6.5,40.5 C 6.5,37.4 9,35 12,35 c 3,0 5.5,2.5 5.5,5.5 0,3 -2.5,5.5 -5.5,5.5 -3,0 -5.5,-2.5 -5.5,-5.5 z"
           id="path8"
           style="fill:none;stroke:#000000;stroke-width:0.08969956;stroke-miterlimit:4;stroke-dasharray:none;stroke-opacity:1"
           inkscape:connector-curvature="0" />
      </g>
      <g
         id="LWPOLYLINE_1_"
         style="fill:none;stroke:#000000;stroke-width:0.08969956;stroke-miterlimit:4;stroke-dasharray:none;stroke-opacity:1">
        <path
           class="st1"
           d="M 6.7,70.7 C -2.2,51.6 -2.2,29.5 6.7,10.3 9.7,4 16,0 22.9,0 h 94.4 c 6.9,0 13.2,4 16.1,10.3 8.9,19.1 8.9,41.2 0,60.4 C 130.5,77 124.2,81 117.3,81 H 22.9 C 16,80.9 9.7,76.9 6.7,70.7 Z"
           id="path11"
           style="fill:none;stroke:#000000;stroke-width:0.08969956;stroke-miterlimit:4;stroke-dasharray:none;stroke-opacity:1"
           inkscape:connector-curvature="0" />
      </g>
    </g>
    <path
       style="fill:#000000;stroke-width:0.59999996"
       d="m -44.47992,579.01973 c -15.02313,-3.43637 -27.19585,-15.02007 -30.95372,-29.45592 -0.77176,-2.96469 -1.10449,-13.04098 -0.5234,-15.85045 0.25612,-1.23832 -0.16527,-1.72468 -2.88129,-3.32553 -3.30454,-1.94772 -6.04564,-5.67545 -5.64259,-7.6736 0.11644,-0.57728 0.88296,-1.21807 1.70337,-1.42398 1.41741,-0.35574 1.48315,-0.56408 1.32054,-4.18486 -0.0941,-2.09576 0.0924,-4.07043 0.41442,-4.38815 0.32205,-0.31771 1.80055,-0.66221 3.28555,-0.76554 l 2.7,-0.18788 0.0654,-3.3967 c 0.0974,-5.0601 0.28297,-5.3033 4.04769,-5.3033 h 3.2507 l 0.4164,-2.77671 c 0.69537,-4.6371 0.60516,-4.56358 5.31528,-4.33142 l 4.22242,0.20813 1.05421,-3.53313 c 0.57981,-1.94322 1.2733,-3.74536 1.54108,-4.00475 0.45445,-0.44021 3.23328,-0.0752 6.83041,0.89725 1.40625,0.38017 1.60853,0.2004 2.27409,-2.02104 0.40179,-1.34108 0.83231,-2.43833 0.95671,-2.43833 0.12439,0 1.4226,0.51285 2.88491,1.13967 3.40647,1.46018 4.69931,3.15366 7.14465,9.35868 l 1.98713,5.04232 4.20448,0.68804 c 4.97441,0.81404 12.46525,3.20229 14.65177,4.67133 0.85399,0.57376 2.28844,1.41297 3.18766,1.86491 2.5109202,1.26197 8.1029402,6.46685 10.64532018,9.90834 8.90756002,12.05771 10.23300002,27.14503 3.51855002,40.05105 -4.67016,8.97663 -12.81764,15.87939 -23.5988202,19.9935 -3.62239,1.38231 -5.31396,1.63464 -12.3,1.83475 -5.51528,0.15798 -9.25606,-0.0324 -11.72287,-0.59668 z m 3.8807,-3.20592 c 0.0337,0.8382 0.58681,1.05 2.74218,1.05 1.7551,0 2.70321,-0.26247 2.70918,-0.75 0.007,-0.5334 0.16306,-0.50696 0.54199,0.0915 0.63675,1.00573 7.08325,0.56864 11.44882,-0.77624 3.95992,-1.21993 10.86969,-4.64876 11.22287,-5.56912 0.16803,-0.4379 0.59148,-0.79619 0.94099,-0.79619 0.68989,0 1.1789102,-0.39895 5.2152302,-4.2547 1.74264,-1.66467 2.39999,-2.65227 1.88061,-2.8254 -0.43917,-0.14639 -0.99995,0.0598 -1.24617,0.45822 -0.24623,0.39841 -0.62722,0.68496 -0.84664,0.63679 -1.03966,-0.22824 -5.1679602,2.12505 -5.1760702,2.95056 -0.005,0.54355 -0.19362,0.68351 -0.45,0.33453 -0.24245,-0.33 -2.06082,-0.61591 -4.04082,-0.63537 -2.445,-0.024 -4.46625,-0.46151 -6.3,-1.36359 -4.25358,-2.09245 -5.4247,-2.87633 -4.97264,-3.32839 0.23113,-0.23113 -0.10797,-0.57005 -0.75356,-0.75315 -0.64559,-0.18309 -2.3888,-1.85988 -3.8738,-3.7262 l -2.7,-3.3933 -0.18696,2.26257 c -0.10284,1.2444 -0.42256,2.11696 -0.7105,1.939 -0.28794,-0.17795 -0.38807,-1.19611 -0.22251,-2.26256 0.28147,-1.81311 0.13525,-2.00741 -2.25195,-2.99247 -2.00256,-0.82634 -2.65611,-0.89102 -3.03133,-0.3 -0.38091,0.59995 -0.48024,0.60066 -0.48756,0.004 -0.005,-0.4125 -0.0226,-0.9525 -0.039,-1.2 -0.0302,-0.45561 -3.49155,-2.47854 -4.3202,-2.52485 -0.2475,-0.0139 -0.45,0.39579 -0.45,0.91026 0,0.51448 -0.25821,0.77583 -0.5738,0.58079 -0.31559,-0.19505 -0.44364,-0.6938 -0.28456,-1.10835 0.36072,-0.94002 -4.93132,-3.63357 -5.45957,-2.77883 -0.20075,0.3248 -0.62074,0.4325 -0.93332,0.23931 -0.31258,-0.19318 -0.42724,-0.57953 -0.2548,-0.85854 0.32162,-0.52051 -1.12624,-1.49873 -6.89393,-4.65792 -1.815,-0.99415 -4.59656,-2.54599 -6.18125,-3.44853 -1.58468,-0.90255 -3.04298,-1.47925 -3.24067,-1.28156 -0.19769,0.19769 -0.70545,-0.10887 -1.12836,-0.68124 -1.31404,-1.77842 -2.26484,0.0286 -2.44002,4.63733 -0.11503,3.02644 0.0818,4.4278 0.71022,5.05621 0.59586,0.59585 0.65437,0.94102 0.18599,1.09715 -0.87699,0.29233 0.44124,6.13007 1.65929,7.34813 0.45914,0.45913 0.8348,1.22821 0.8348,1.70906 0,1.98703 4.13433,8.02397 7.9862,11.66144 1.48517,1.4025 2.87213,2.55 3.08214,2.55 0.21001,0 0.94508,0.52475 1.63349,1.1661 1.23958,1.15485 6.14489,3.67287 8.74817,4.49067 1.10142,0.34601 1.35,0.1957 1.35,-0.81633 0,-0.68225 0.30148,-1.24044 0.66997,-1.24044 0.37448,0 0.53164,0.52902 0.35633,1.1994 -0.357,1.36518 0.19228,1.82883 2.82132,2.3815 1.37041,0.28809 1.95849,0.14609 2.2602,-0.54574 0.34674,-0.79508 0.41415,-0.77787 0.45,0.11484 z m 5.11217,-1.89919 c -0.3135,-0.30206 -1.245,-0.67675 -2.06999,-0.83264 -0.94223,-0.17805 -0.66334,-0.2629 0.74999,-0.22818 1.41381,0.0347 2.25,0.34418 2.25,0.83265 0,0.92172 -0.16751,0.96282 -0.93,0.22817 z m -17.66999,-2.45081 c 0,-0.33 0.28593,-0.6 0.63541,-0.6 0.34947,0 0.46854,0.27 0.26459,0.6 -0.20396,0.33 -0.48989,0.6 -0.63541,0.6 -0.14553,0 -0.26459,-0.27 -0.26459,-0.6 z m 6,-0.56459 c 0,-0.31052 0.27,-0.73146 0.6,-0.93541 0.33,-0.20395 0.6,0.0501 0.6,0.56459 0,0.51448 -0.27,0.93541 -0.6,0.93541 -0.33,0 -0.6,-0.25406 -0.6,-0.56459 z m 11.69999,-0.0354 c -0.20395,-0.33 -0.0849,-0.6 0.26459,-0.6 0.34948,0 0.63541,0.27 0.63541,0.6 0,0.33 -0.11906,0.6 -0.26458,0.6 -0.14553,0 -0.43146,-0.27 -0.63542,-0.6 z m 17.7,0 c 0,-0.33 0.28594,-0.6 0.63542,-0.6 0.34947,0 0.46854,0.27 0.26458,0.6 -0.20395,0.33 -0.48988,0.6 -0.63541,0.6 -0.14552,0 -0.26459,-0.27 -0.26459,-0.6 z m -29.61697,-2.7 c -0.20826,-0.54273 -0.003,-0.9 0.51698,-0.9 0.52002,0 0.72523,0.35727 0.51697,0.9 -0.18995,0.495 -0.42259,0.9 -0.51697,0.9 -0.0944,0 -0.32703,-0.405 -0.51698,-0.9 z m 6,0 c -0.20826,-0.54273 -0.003,-0.9 0.51698,-0.9 0.52002,0 0.72523,0.35727 0.51697,0.9 -0.18995,0.495 -0.42259,0.9 -0.51697,0.9 -0.0944,0 -0.32703,-0.405 -0.51698,-0.9 z m 5.74332,-0.0228 c -0.63921,-0.72474 -0.61314,-0.87717 0.15,-0.87717 0.50801,0 0.92365,0.405 0.92365,0.9 0,1.0942 -0.0901,1.09228 -1.07365,-0.0228 z m -23.52634,-0.2772 c -0.76914,-0.49705 -0.74733,-0.58296 0.15,-0.59081 0.5775,-0.005 1.05,0.26081 1.05,0.59081 0,0.73177 -0.0677,0.73177 -1.2,0 z m 5.6838,-0.0262 c -0.19504,-0.31557 0.20131,-0.57378 0.88079,-0.57378 1.44874,0 1.59489,0.33367 0.35462,0.80961 -0.48443,0.18589 -1.04037,0.0798 -1.23541,-0.23581 z m 23.58015,-0.0706 c -0.45824,-0.29082 0.25649,-0.48852 1.78604,-0.49404 1.4025,-0.005 2.55,0.0952 2.55,0.22272 0,0.5013 -3.61704,0.72763 -4.33604,0.27132 z m 5.83604,0.0968 c -0.20395,-0.33 0.0501,-0.6 0.56459,-0.6 0.51448,0 0.93541,0.27 0.93541,0.6 0,0.33 -0.25406,0.6 -0.56458,0.6 -0.31053,0 -0.73146,-0.27 -0.93542,-0.6 z m 5.92817,-0.11622 c -0.16444,-0.26608 0.79695,-0.48378 2.13642,-0.48378 1.33948,0 2.43541,0.10547 2.43541,0.23436 0,0.4805 -4.28455,0.71424 -4.57183,0.24942 z m 6.07183,0.11622 c -0.20395,-0.33 0.0661,-0.6 0.6,-0.6 0.53396,0 0.80396,0.27 0.6,0.6 -0.20395,0.33 -0.47395,0.6 -0.6,0.6 -0.12604,0 -0.39604,-0.27 -0.6,-0.6 z m -44.84999,-0.39736 c 0.4125,-0.16645 1.0875,-0.16645 1.5,0 0.4125,0.16644 0.075,0.30263 -0.75,0.30263 -0.825,0 -1.1625,-0.13619 -0.75,-0.30263 z m 6.6,0 c 0.4125,-0.16645 1.0875,-0.16645 1.5,0 0.4125,0.16644 0.075,0.30263 -0.75,0.30263 -0.825,0 -1.1625,-0.13619 -0.75,-0.30263 z m 6.0375,-0.0125 c 0.43312,-0.17333 0.95062,-0.15201 1.15,0.0473 0.19937,0.19937 -0.15501,0.34118 -0.7875,0.31513 -0.69897,-0.0288 -0.84114,-0.17097 -0.3625,-0.3625 z m 6,0 c 0.43312,-0.17333 0.95062,-0.15201 1.15,0.0473 0.19937,0.19937 -0.15501,0.34118 -0.7875,0.31513 -0.69897,-0.0288 -0.84114,-0.17097 -0.3625,-0.3625 z m 5.39999,0 c 0.43313,-0.17333 0.95063,-0.15201 1.15001,0.0473 0.19937,0.19937 -0.15501,0.34118 -0.7875,0.31513 -0.69897,-0.0288 -0.84114,-0.17097 -0.36251,-0.3625 z m 11.3625,0.0125 c 0.4125,-0.16645 1.0875,-0.16645 1.5,0 0.4125,0.16644 0.075,0.30263 -0.75,0.30263 -0.825,0 -1.1625,-0.13619 -0.75,-0.30263 z m -37.00263,-2.35263 c 0.0288,-0.69897 0.17097,-0.84114 0.3625,-0.36251 0.17333,0.43313 0.15201,0.95063 -0.0474,1.15001 -0.19937,0.19937 -0.34118,-0.15501 -0.31513,-0.7875 z m 11.40001,0 c 0.0288,-0.69897 0.17096,-0.84114 0.36249,-0.36251 0.17332,0.43313 0.15201,0.95063 -0.0473,1.15001 -0.19938,0.19937 -0.34118,-0.15501 -0.31513,-0.7875 z m 11.99999,0 c 0.0288,-0.69897 0.17097,-0.84114 0.3625,-0.36251 0.17332,0.43313 0.15201,0.95063 -0.0473,1.15001 -0.19938,0.19937 -0.34118,-0.15501 -0.31513,-0.7875 z m 11.65263,0.34999 c 0.20396,-0.33 0.48989,-0.6 0.63542,-0.6 0.14552,0 0.26458,0.27 0.26458,0.6 0,0.33 -0.28593,0.6 -0.63541,0.6 -0.34947,0 -0.46854,-0.27 -0.26459,-0.6 z m -35.31697,-2.7 c -0.18995,-0.495 -0.0838,-0.9 0.23581,-0.9 0.31964,0 0.58117,0.405 0.58117,0.9 0,0.495 -0.10612,0.9 -0.23581,0.9 -0.12969,0 -0.39122,-0.405 -0.58117,-0.9 z m 23.40737,0.0192 c -0.18589,-0.48443 -0.0798,-1.04037 0.23581,-1.23541 0.31558,-0.19505 0.57379,0.20131 0.57379,0.88078 0,1.44875 -0.33366,1.5949 -0.8096,0.35463 z m -29.49039,-0.3192 c -0.20395,-0.33 -0.0849,-0.6 0.26459,-0.6 0.34947,0 0.63541,0.27 0.63541,0.6 0,0.33 -0.11907,0.6 -0.26459,0.6 -0.14553,0 -0.43146,-0.27 -0.63541,-0.6 z m 17.7,0.0354 c 0,-0.31052 0.27,-0.73146 0.6,-0.93541 0.33,-0.20395 0.6,0.0501 0.6,0.56459 0,0.51448 -0.27,0.93541 -0.6,0.93541 -0.33,0 -0.6,-0.25406 -0.6,-0.56459 z m -3.3,-0.6354 c -0.20396,-0.33 -0.0849,-0.6 0.26458,-0.6 0.34948,0 0.63542,0.27 0.63542,0.6 0,0.33 -0.11907,0.6 -0.26459,0.6 -0.14553,0 -0.43146,-0.27 -0.63541,-0.6 z m 6.75,-0.39736 c 0.4125,-0.16645 1.0875,-0.16645 1.5,0 0.4125,0.16644 0.075,0.30263 -0.75,0.30263 -0.825,0 -1.1625,-0.13619 -0.75,-0.30263 z m -15.15,-1.40264 c -0.20395,-0.33 -0.0849,-0.6 0.26459,-0.6 0.34947,0 0.63541,0.27 0.63541,0.6 0,0.33 -0.11907,0.6 -0.26459,0.6 -0.14553,0 -0.43146,-0.27 -0.63541,-0.6 z m 11.7,-0.3 c 0,-0.495 0.10611,-0.9 0.2358,-0.9 0.1297,0 0.39122,0.405 0.58117,0.9 0.18995,0.495 0.0838,0.9 -0.2358,0.9 -0.31965,0 -0.58117,-0.405 -0.58117,-0.9 z m 12.04736,-0.05 c 0.0288,-0.69897 0.17097,-0.84114 0.3625,-0.3625 0.17332,0.43312 0.15201,0.95062 -0.0473,1.15 -0.19938,0.19938 -0.34118,-0.155 -0.31513,-0.7875 z m -29.74736,-2.65002 c -0.20395,-0.33 -0.0849,-0.6 0.26459,-0.6 0.34947,0 0.63541,0.27 0.63541,0.6 0,0.33 -0.11907,0.6 -0.26459,0.6 -0.14553,0 -0.43146,-0.27 -0.63541,-0.6 z m 6.04977,0.0805 c -0.25847,-0.4182 -0.3079,-0.9224 -0.10986,-1.12045 0.53698,-0.53697 1.12247,0.25278 0.83244,1.12287 -0.20324,0.60971 -0.34456,0.60923 -0.72258,-0.002 z m 5.65023,-0.38053 c 0,-0.495 0.26152,-0.9 0.58117,-0.9 0.31964,0 0.42575,0.405 0.2358,0.9 -0.18995,0.495 -0.45147,0.9 -0.58117,0.9 -0.12969,0 -0.2358,-0.405 -0.2358,-0.9 z m 6.17811,-1.19331 c 0.0359,-1.26506 0.24612,-1.79921 0.53142,-1.35 0.64814,1.02051 0.61285,3.44331 -0.0502,3.44331 -0.29734,0 -0.51391,-0.94198 -0.48128,-2.09331 z m 8.52189,0.89331 c -0.20396,-0.33 -0.0849,-0.6 0.26458,-0.6 0.34948,0 0.63542,0.27 0.63542,0.6 0,0.33 -0.11907,0.6 -0.26459,0.6 -0.14553,0 -0.43146,-0.27 -0.63541,-0.6 z m -32.31698,-5.1 c -0.18995,-0.495 -0.0838,-0.9 0.23581,-0.9 0.31964,0 0.58117,0.405 0.58117,0.9 0,0.495 -0.10612,0.9 -0.23581,0.9 -0.12969,0 -0.39122,-0.405 -0.58117,-0.9 z m 5.96675,0.38053 c -0.25847,-0.4182 -0.3079,-0.9224 -0.10985,-1.12045 0.53697,-0.53697 1.12246,0.25278 0.83243,1.12287 -0.20324,0.60971 -0.34456,0.60923 -0.72258,-0.002 z m 17.65023,-0.34511 c 0,-0.51448 0.27,-0.93542 0.6,-0.93542 0.33,0 0.6,0.25407 0.6,0.56459 0,0.31053 -0.27,0.73146 -0.6,0.93541 -0.33,0.20396 -0.6,-0.0501 -0.6,-0.56458 z m -12,-0.33542 c 0,-0.33 0.27,-0.6 0.6,-0.6 0.33,0 0.6,0.27 0.6,0.6 0,0.33 -0.27,0.6 -0.6,0.6 -0.33,0 -0.6,-0.27 -0.6,-0.6 z m 5.7,0 c -0.20396,-0.33 -0.0849,-0.6 0.26459,-0.6 0.34947,0 0.63541,0.27 0.63541,0.6 0,0.33 -0.11907,0.6 -0.26459,0.6 -0.14553,0 -0.43146,-0.27 -0.63541,-0.6 z m 9.1875,-0.40986 c 0.43312,-0.17332 0.95062,-0.15201 1.15,0.0473 0.19937,0.19938 -0.15501,0.34118 -0.7875,0.31513 -0.69897,-0.0288 -0.84114,-0.17096 -0.3625,-0.3625 z m -14.5875,-1.99014 c -0.20395,-0.33 -0.0849,-0.6 0.26459,-0.6 0.34947,0 0.63541,0.27 0.63541,0.6 0,0.33 -0.11907,0.6 -0.26459,0.6 -0.14553,0 -0.43146,-0.27 -0.63541,-0.6 z m -11.91698,-2.7 c -0.18995,-0.495 -0.0838,-0.89999 0.23581,-0.89999 0.31964,0 0.58117,0.40499 0.58117,0.89999 0,0.495 -0.10612,0.9 -0.23581,0.9 -0.12969,0 -0.39122,-0.405 -0.58117,-0.9 z m 12,0 c -0.18995,-0.495 -0.0838,-0.89999 0.23581,-0.89999 0.31964,0 0.58117,0.40499 0.58117,0.89999 0,0.495 -0.10612,0.9 -0.23581,0.9 -0.12969,0 -0.39122,-0.405 -0.58117,-0.9 z m 2.50448,-0.70986 c 0.43312,-0.17332 0.95062,-0.15201 1.15,0.0473 0.19937,0.19938 -0.155,0.34118 -0.7875,0.31513 -0.69897,-0.0288 -0.84114,-0.17096 -0.3625,-0.3625 z m -2.5875,-1.99013 c -0.20395,-0.33 -0.0849,-0.6 0.26459,-0.6 0.34947,0 0.63541,0.27 0.63541,0.6 0,0.33 -0.11907,0.6 -0.26459,0.6 -0.14553,0 -0.43146,-0.27 -0.63541,-0.6 z m -11.97438,-2.95855 c -0.18986,-0.30719 -0.0708,-0.72813 0.26459,-0.93541 0.33538,-0.20727 0.60979,0.0441 0.60979,0.55855 0,1.05391 -0.36004,1.20909 -0.87438,0.37686 z m 69.7452802,18.82764 c 0.75398998,-1.16382 1.21055998,-2.37548 1.01457998,-2.69257 -0.19597,-0.31709 -0.12038,-0.57653 0.16797,-0.57653 0.73333,0 2.64196002,-4.16019 2.22107002,-4.8412 -0.18994,-0.30734 -0.0895,-0.5588 0.22329,-0.5588 0.60139,0 0.98583,-1.72337 1.63959,-7.34999 0.38646,-3.32606 0.34987,-3.45294 -1.01828,-3.53171 l -1.41913,-0.0817 1.38743,-0.26493 c 1.14899,-0.2194 1.32998,-0.54047 1.05312,-1.86829 -0.18387,-0.88185 -0.48914,-2.62698 -0.67837,-3.87806 -0.50506,-3.33925 -1.97602,-6.54937 -2.77485002,-6.05567 -0.45936,0.2839 -0.56159,-0.0209 -0.31864,-0.94988 0.2191,-0.83784 -0.0576,-1.97857 -0.71407,-2.94383 -0.58948,-0.86676 -1.72041998,-2.58856 -2.51319998,-3.82623 -0.79278,-1.23768 -1.76517,-2.12893 -2.16086,-1.98056 -0.39569,0.14836 -0.58916,-0.0698 -0.42992,-0.48473 0.15924,-0.41497 -0.78775,-1.75122 -2.10442,-2.96944 -2.47837,-2.29308 -3.6395602,-2.75844 -3.6554002,-1.46496 -0.006,0.51467 -0.18215,0.47659 -0.56041,-0.12135 -0.30318,-0.47925 -0.43287,-1.06287 -0.28821,-1.29693 0.14467,-0.23407 -1.09106,-1.25876 -2.74605,-2.27708 -3.38255,-2.08131 -7.61634,-3.29406 -7.95482,-2.27863 -0.12015,0.36044 -0.54982,0.42776 -0.99079,0.15522 -0.63456,-0.39218 -0.6302,-0.57298 0.0236,-0.97704 0.53563,-0.33104 -0.0373,-0.63007 -1.72398,-0.89978 -3.10991,-0.49729 -3.45014,-0.44842 -3.45014,0.49559 0,0.4125 -0.22738,0.91631 -0.5053,1.11959 -0.27791,0.20327 -0.23324,0.87827 0.0993,1.5 0.33253,0.62172 1.50492,2.95191 2.60531,5.17819 1.10039,2.22628 2.33821,4.04878 2.75071,4.05 0.4125,10e-4 0.69466,0.20472 0.62701,0.45222 -0.0676,0.2475 0.2233,1.4625 0.64654,2.7 0.55643,1.62695 1.13046,2.26927 2.07298,2.3196 1.00462,0.0536 1.06427,0.13222 0.26014,0.34271 -0.95857,0.25092 -0.93461,0.46202 0.29488,2.59831 0.73602,1.27885 1.84018,2.45646 2.4537,2.6169 0.63962,0.16726 0.9371,0.58035 0.69733,0.96831 -0.48591,0.78622 0.79065,4.20417 1.57022,4.20417 0.28996,0 0.5272,0.38969 0.5272,0.86597 0,1.01415 2.36516,2.82638 3.09779,2.37359 0.27622,-0.17071 0.50221,0.0534 0.50221,0.49797 0,0.44459 1.2825002,1.86835 2.8500002,3.1639 1.5675,1.29556 3.20281,2.83774 3.63402,3.42706 0.43122,0.58933 1.37622,1.10283 2.1,1.14111 0.91751,0.0485 1.0165,0.14913 0.32692,0.33226 -0.90733,0.24094 -0.9122,0.45831 -0.059,2.63039 0.61573,1.5675 1.30489,2.36774 2.03905998,2.36774 0.65968,0 1.10527,0.42542 1.0998,1.05 -0.007,0.83044 -0.1187,0.8771 -0.53292,0.22313 -0.93662,-1.47874 -1.98166998,-0.0494 -1.74884998,2.39197 0.12193,1.27856 0.0683,2.39447 -0.11923,2.47978 -0.18751,0.0853 -0.95894,1.16762 -1.7143,2.40512 -1.26964,2.08004 -1.29037,2.24944 -0.27445,2.24258 0.60442,-0.004 1.71585,-0.95965 2.46984,-2.12348 z m 1.37645998,-10.81909 c 0.0288,-0.69897 0.17097,-0.84114 0.3625,-0.36251 0.17332,0.43313 0.15201,0.95063 -0.0473,1.15001 -0.19938,0.19937 -0.34119,-0.15501 -0.31513,-0.7875 z m -0.3971,-2.73047 c -0.1766,-0.28575 0.50484,-0.51953 1.51432002,-0.51953 1.00948,0 1.83541,0.10352 1.83541,0.23005 0,0.50915 -3.05101002,0.77282 -3.34973002,0.28948 z m -6.12392998,-5.64236 c -0.64843,-0.7352 -0.57864,-0.87717 0.43118,-0.87717 0.82444,0 1.09579,0.28413 0.85946,0.9 -0.41029,1.06917 -0.3262,1.07066 -1.29064,-0.0228 z m 5.99999998,0 c -0.64843,-0.7352 -0.57864,-0.87717 0.43118,-0.87717 0.82444002,0 1.09579002,0.28413 0.85946002,0.9 -0.41029002,1.06917 -0.32620002,1.07066 -1.29064002,-0.0228 z M -11.70968,534.51378 c 0.0288,-0.69897 0.17097,-0.84114 0.3625,-0.3625 0.17332,0.43312 0.15201,0.95062 -0.0473,1.15 -0.19938,0.19937 -0.34118,-0.155 -0.31513,-0.7875 z m 12.00000018,0 c 0.0288,-0.69897 0.17097,-0.84114 0.3625,-0.3625 0.17332,0.43312 0.15201,0.95062 -0.0473,1.15 -0.19938,0.19937 -0.34119,-0.155 -0.31513,-0.7875 z m -3.19736998,-0.64737 c 0.4125,-0.16645 1.0875,-0.16645 1.5,0 0.41249998,0.16645 0.075,0.30263 -0.75,0.30263 -0.825,0 -1.1625,-0.13618 -0.75,-0.30263 z m 3.19736998,-1.75263 c 0.0288,-0.69897 0.17097,-0.84114 0.3625,-0.3625 0.17332,0.43312 0.15201,0.95062 -0.0473,1.15 -0.19938,0.19937 -0.34119,-0.155 -0.31513,-0.7875 z m -12.00000018,-3 c 0.0288,-0.69897 0.17097,-0.84114 0.3625,-0.3625 0.17332,0.43312 0.15201,0.95062 -0.0473,1.15 -0.19938,0.19937 -0.34118,-0.155 -0.31513,-0.7875 z m 12.00000018,0 c 0.0288,-0.69897 0.17097,-0.84114 0.3625,-0.3625 0.17332,0.43312 0.15201,0.95062 -0.0473,1.15 -0.19938,0.19937 -0.34119,-0.155 -0.31513,-0.7875 z m -12.00000018,-3 c 0.0288,-0.69897 0.17097,-0.84114 0.3625,-0.3625 0.17332,0.43312 0.15201,0.95062 -0.0473,1.15 -0.19938,0.19937 -0.34118,-0.155 -0.31513,-0.7875 z m -0.0474,-2.65 c 0,-0.33 0.28594,-0.6 0.63542,-0.6 0.34947,0 0.46854,0.27 0.26458,0.6 -0.20395,0.33 -0.48988,0.6 -0.63541,0.6 -0.14552,0 -0.26459,-0.27 -0.26459,-0.6 z m 5.7000002,0 c -0.20395,-0.33 -0.0849,-0.6 0.26459,-0.6 0.34948,0 0.63541,0.27 0.63541,0.6 0,0.33 -0.11906,0.6 -0.26459,0.6 -0.14552,0 -0.43146,-0.27 -0.63541,-0.6 z M -17.86958,523.05391 c 0.43313,-0.17332 0.95063,-0.15201 1.15001,0.0474 0.19937,0.19937 -0.15501,0.34118 -0.7875,0.31513 -0.69897,-0.0288 -0.84114,-0.17096 -0.36251,-0.3625 z m 9.0000002,0 c 0.43313,-0.17332 0.95063,-0.15201 1.15,0.0474 0.19938,0.19937 -0.155,0.34118 -0.78749,0.31513 -0.69897,-0.0288 -0.84114,-0.17096 -0.36251,-0.3625 z m -3.1875002,-4.99013 c -0.20395,-0.33 -0.0849,-0.6 0.26459,-0.6 0.34948,0 0.63541,0.27 0.63541,0.6 0,0.33 -0.11906,0.6 -0.26458,0.6 -0.14553,0 -0.43146,-0.27 -0.63542,-0.6 z m -11.7,-3 c 0,-0.33 0.27,-0.6 0.6,-0.6 0.33,0 0.6,0.27 0.6,0.6 0,0.33 -0.27,0.6 -0.6,0.6 -0.33,0 -0.6,-0.27 -0.6,-0.6 z m 0,-2.7 c 0,-0.495 0.27,-0.9 0.6,-0.9 0.33,0 0.6,0.405 0.6,0.9 0,0.495 -0.27,0.9 -0.6,0.9 -0.33,0 -0.6,-0.405 -0.6,-0.9 z m 5.78303,0 c -0.18995,-0.495 -0.0838,-0.9 0.2358,-0.9 0.31965,0 0.58117,0.405 0.58117,0.9 0,0.495 -0.10611,0.9 -0.2358,0.9 -0.1297,0 -0.39122,-0.405 -0.58117,-0.9 z m -16.88864,39.2909 c -0.45325,-0.73336 -4.56853,-2.51677 -4.94313,-2.14216 -0.27592,0.27592 3.98655,2.67843 4.83416,2.72473 0.26697,0.0146 0.316,-0.24757 0.10897,-0.58257 z m 2.10561,-1.41744 c 0,-0.12459 -0.405,-0.56265 -0.9,-0.97347 -0.7371,-0.61174 -0.9,-0.57074 -0.9,0.22654 0,0.5354 0.405,0.97346 0.9,0.97346 0.495,0 0.9,-0.10194 0.9,-0.22653 z m -5.5895,-4.73446 c 2.99534,-4.46416 9.44023,-11.04628 14.33507,-14.64033 3.7642,-2.76386 5.48083,-4.99407 2.20443,-2.86395 -8.20394,5.33373 -19.34999,17.18146 -19.34999,20.56814 0,1.12288 0.005,1.11765 2.81049,-3.06386 z m 2.18336,2.48818 c -0.75405,-0.75405 -1.57507,-1.08601 -2.01439,-0.81449 -0.52599,0.32507 -0.32553,0.68893 0.68947,1.25155 2.15142,1.19253 2.7553,0.99332 1.32492,-0.43706 z m 4.00614,0.12175 c 0,-0.5321 -3.6493,-3.04893 -4.42081,-3.04893 -1.13706,0 -0.0851,1.32661 1.87081,2.35914 2.67795,1.41374 2.55,1.37913 2.55,0.68979 z m -10.4646,-0.59167 c -0.77078,-1.24714 -7.09698,-4.33568 -7.68214,-3.75052 -0.39984,0.39984 0.57503,1.20606 2.92344,2.41771 3.53951,1.82618 5.38267,2.34242 4.7587,1.33281 z m 12.16048,-2.16139 c -0.17827,-0.17826 -0.7904,-0.14519 -1.36031,0.0735 -0.81422,0.31245 -0.86582,0.50291 -0.24089,0.88914 0.79813,0.49327 2.20893,-0.3549 1.6012,-0.96264 z m -10.69587,0.009 c 0,-0.49217 -1.4175,-1.69485 -3.15,-2.67262 -3.5023,-1.97657 -4.35,-2.18752 -4.35,-1.0825 0,0.4125 0.405,0.75 0.9,0.75 0.495,0 1.19666,0.37891 1.55925,0.84204 0.50732,0.64798 3.00546,2.17678 4.89075,2.99301 0.0825,0.0357 0.15,-0.33775 0.15,-0.82993 z m 8.54999,-1.62179 c -1.38767,-1.38768 -2.3432,-1.17344 -1.74295,0.39079 0.19541,0.50923 0.96376,0.92588 1.70746,0.92588 h 1.35216 z m 3.45,0.74708 c 0,-0.9353 -3.78838,-4.18481 -4.42214,-3.79312 -0.32212,0.19908 0.47359,1.25812 1.76824,2.35341 2.62627,2.22187 2.6539,2.23686 2.6539,1.43971 z m -20.02907,-4.64664 c 3.26578,-5.63145 11.90782,-14.49096 18.31721,-18.77812 5.49596,-3.67619 6.62399,-5.52448 1.38762,-2.27362 -9.0977,5.64806 -17.76544,14.73936 -22.16606,23.24923 -1.83244,3.54354 0.16732,1.75806 2.46123,-2.19749 z m 9.67461,2.97964 c 0.12129,-0.36387 -0.3096,-0.82984 -0.95752,-1.03548 -0.64793,-0.20564 -2.08029,-1.16924 -3.18303,-2.14133 -2.23282,-1.96828 -3.21391,-2.21057 -3.71054,-0.91635 -0.22508,0.58653 0.78099,1.55906 3.0858,2.98295 3.4339,2.12143 4.35656,2.33639 4.76529,1.11021 z m -13.64553,-0.16341 c 0,-0.33 -0.28594,-0.6 -0.63541,-0.6 -0.34948,0 -0.46855,0.27 -0.26459,0.6 0.20395,0.33 0.48988,0.6 0.63541,0.6 0.14552,0 0.26459,-0.27 0.26459,-0.6 z m 26.05874,-0.53325 c 0.29572,-0.47849 -3.28553,-3.66675 -4.11871,-3.66675 -0.83672,0 -0.20438,1.38302 1.24758,2.72864 1.69858,1.5742 2.34705,1.78608 2.87113,0.93811 z m -27.25874,-0.98786 c 0,-1.3504 -5.45245,-8.1173 -6.17882,-7.66838 -0.37287,0.23045 -0.41736,0.0687 -0.11546,-0.41977 0.35661,-0.577 0.21765,-0.68973 -0.5073,-0.41154 -0.62663,0.24046 -0.99842,0.0823 -0.99842,-0.42485 0,-0.44439 -0.50849,-1.17842 -1.12996,-1.63117 -0.62148,-0.45275 -3.25398,-2.45169 -5.85,-4.44208 -6.76452,-5.18642 -8.59317,-5.74001 -11.78812,-3.56868 -0.99659,0.6773 -0.96789,0.79152 0.42889,1.70673 0.82333,0.53946 1.77647,0.98085 2.11808,0.98085 0.34161,0 0.62111,0.21178 0.62111,0.47063 0,0.25885 0.8775,0.98102 1.95,1.60481 1.0725,0.6238 2.085,1.29078 2.25,1.48217 0.48459,0.56211 14.54629,11.0734 15.88085,11.87112 1.24765,0.74578 3.31915,1.02672 3.31915,0.45016 z m 16.8,-0.89093 c 0,-0.29767 -0.59133,-1.09212 -1.31406,-1.76545 -0.99421,-0.92624 -1.43011,-1.04147 -1.79082,-0.47337 -0.35209,0.55453 -0.47915,0.50366 -0.48594,-0.19456 -0.005,-0.51997 -0.64366,-1.54147 -1.41913,-2.26998 -1.29792,-1.21933 -1.47529,-1.24584 -2.23235,-0.33364 -0.71856,0.86581 -0.59734,1.17101 0.95995,2.417 0.98029,0.78434 1.98485,1.42742 2.23235,1.42906 0.2475,0.002 0.99984,0.55282 1.67188,1.22486 1.15899,1.15898 2.37812,1.1416 2.37812,-0.0339 z m 10.81291,-1.16982 c -1.44537,-2.02985 -2.32954,-2.70152 -2.85909,-2.17197 -0.41942,0.41942 2.79805,3.95383 3.59929,3.95383 0.29073,0 -0.0424,-0.80184 -0.7402,-1.78186 z m -24.61291,-0.31814 c 0,-0.495 -0.27,-0.9 -0.6,-0.9 -0.33,0 -0.6,0.405 -0.6,0.9 0,0.495 0.27,0.9 0.6,0.9 0.33,0 0.6,-0.405 0.6,-0.9 z m 28.19775,-0.2142 c -0.004,-0.71379 -2.37541,-4.2859 -2.83894,-4.27662 -0.25235,0.005 -0.84283,0.25224 -1.3122,0.54931 -0.69604,0.44053 -0.53011,0.91845 0.9,2.59218 1.50758,1.76439 3.25835,2.37567 3.25114,1.13513 z m -30.65725,-1.32257 c -1.16286,-0.71869 -1.44681,-0.15526 -0.49794,0.98806 0.57869,0.69727 0.88433,0.76803 1.05864,0.2451 0.13478,-0.40435 -0.11753,-0.95927 -0.5607,-1.23316 z m 18.05949,1.04405 c 0,-0.94562 -5.10327,-5.50728 -6.16118,-5.50728 -1.56807,0 -0.61409,1.64147 2.26119,3.8907 3.26972,2.55781 3.89999,2.81906 3.89999,1.61658 z m -13.79999,-2.24269 c 0,-0.31053 -0.39653,-0.56459 -0.88118,-0.56459 -0.53524,0 -0.7461,0.35195 -0.53712,0.89655 0.35417,0.92296 1.4183,0.67389 1.4183,-0.33196 z m 28.19999,0.82253 c 0,-0.67485 -2.66179,-4.37858 -3.15,-4.38302 -0.8434,-0.008 -0.45255,1.30286 0.9,3.0178 1.30148,1.65018 2.25,2.22571 2.25,1.36522 z m -31.31597,-1.30528 c -0.43121,-0.61498 -6.9672,-5.77963 -14.52442,-11.47699 -13.07056,-9.85385 -13.72137,-10.26368 -13.35,-8.40685 0.21472,1.0736 0.3904,2.62252 0.3904,3.44204 0,1.24136 0.22531,1.4359 1.35,1.16563 1.93496,-0.46499 5.09183,0.80944 8.55,3.45166 4.87853,3.72745 8.83855,7.00498 11.4477,9.47477 2.07955,1.96846 4.39817,3.19916 6.43632,3.41632 0.26621,0.0284 0.13121,-0.45159 -0.3,-1.06658 z m 18.9843,-0.13309 c -0.19318,-0.31258 -0.60259,-0.41299 -0.90979,-0.22313 -0.30719,0.18986 -0.55854,0.0593 -0.55854,-0.29021 0,-0.34948 -0.4725,-0.62643 -1.05,-0.61545 -0.88182,0.0168 -0.82376,0.20845 0.3625,1.19678 1.36549,1.13765 2.87161,1.09015 2.15583,-0.068 z m -33.58499,-0.46573 c -0.65083,-0.61434 -4.6223,-3.46507 -8.82549,-6.33496 -7.10076,-4.84832 -7.56832,-5.07735 -6.6,-3.23302 0.57319,1.09173 1.43129,2.25496 1.9069,2.58496 1.26858,0.88019 14.08606,8.0674 14.41859,8.085 0.15583,0.008 -0.24917,-0.48765 -0.9,-1.10198 z m 48.50871,0.72493 c 0.21563,-0.21563 -0.18758,-1.36313 -0.89602,-2.55 -1.81297,-3.03733 -2.02267,-3.21028 -2.78249,-2.29476 -0.51767,0.62375 -0.32432,1.33103 0.82706,3.02543 1.48893,2.19116 2.09374,2.57705 2.85145,1.81933 z m -13.18065,-2.19941 c -0.22449,-0.3897 -0.7748,-1.11354 -1.22288,-1.60854 -0.44809,-0.495 -1.36842,-1.6425 -2.04516,-2.55 -1.22537,-1.64319 -2.58107,-2.1216 -3.19538,-1.12763 -0.41313,0.66847 5.69921,6.71928 6.36928,6.30516 0.27627,-0.17075 0.31864,-0.6293 0.0941,-1.01899 z m -21.3691,-2.65854 c -2.79466,-4.95391 -2.84404,-5.0151 -6.14229,-7.61272 -1.65,-1.2995 -3.48302,-2.852 -4.07338,-3.45 -0.59035,-0.59801 -1.26535,-1.08853 -1.5,-1.09006 -0.23464,-10e-4 -1.25473,-0.77905 -2.26687,-1.72783 -1.01213,-0.94879 -2.63213,-2.12462 -3.59999,-2.61298 -1.75305,-0.88452 -7.45976,-1.27776 -7.45976,-0.51403 0,0.4607 5.76429,4.85762 6.36827,4.85762 0.21969,0 0.6992,0.37788 1.06558,0.83974 1.39934,1.76402 16.04995,12.37928 16.60865,12.03399 0.32297,-0.19961 0.51304,-0.0919 0.42236,0.23932 -0.12955,0.47323 1.70797,2.37906 2.37941,2.46786 0.0794,0.0105 -0.73154,-1.53341 -1.80198,-3.43091 z m 35.22231,1.15932 c -0.90383,-1.81178 -2.06461,-3.02931 -2.06461,-2.16555 0,0.65975 2.51195,4.54428 2.77104,4.28518 0.12879,-0.12878 -0.1891,-1.08262 -0.70643,-2.11963 z m -29.23937,0.71581 c 0.12357,-0.37118 -0.87202,-1.11368 -2.21242,-1.65 -3.34106,-1.33683 -3.49863,-1.24788 -1.49472,0.84376 1.71631,1.79143 3.26688,2.12866 3.70714,0.80624 z m 9.95034,-1.12512 c -1.78489,-2.23698 -2.26983,-2.48013 -2.90302,-1.4556 -0.54109,0.8755 2.06515,3.55559 3.45761,3.55559 0.98902,0 0.92373,-0.24723 -0.55459,-2.09999 z m 8.22442,-0.35101 c 0,-1.41272 -4.19965,-7.22003 -4.90572,-6.78366 -1.15102,0.71136 -0.36999,3.56274 1.65165,6.02989 2.17292,2.65176 3.25407,2.9022 3.25407,0.75377 z m -18.38857,-1.46346 c -0.193,-0.50295 -4.43702,-4.58774 -9.43116,-9.07731 -4.99415,-4.48958 -10.29865,-9.27557 -11.78779,-10.63555 -1.48915,-1.35997 -3.31165,-2.98703 -4.05,-3.61567 l -1.34247,-1.143 v 3.10785 c 0,2.82729 0.1468,3.16365 1.62625,3.72614 3.48034,1.32322 17.17789,12.44608 18.51769,15.03697 0.52417,1.01363 1.77664,1.94131 3.39343,2.51345 3.31156,1.17186 3.49228,1.17699 3.07405,0.0871 z m 2.48858,0.31446 c -0.20396,-0.33 -0.64082,-0.6 -0.97082,-0.6 -0.33,0 -0.43314,0.27 -0.22918,0.6 0.20395,0.33 0.64081,0.6 0.97081,0.6 0.33,0 0.43314,-0.27 0.22919,-0.6 z m 17.89635,-2.34239 c -0.52399,-0.7997 -1.4909,-2.36619 -2.14871,-3.48108 -1.20296,-2.03886 -2.39946,-2.34049 -2.72064,-0.68586 -0.25687,1.32334 4.7782,7.30992 5.35845,6.37107 0.25849,-0.41827 0.0421,-1.39339 -0.4891,-2.20413 z m -19.2976,0.0161 c -0.44069,-0.27934 -0.82016,-0.74771 -0.84329,-1.04081 -0.0231,-0.29311 -0.40506,-1.40175 -0.84875,-2.46365 -0.4437,-1.0619 -0.80671,-2.22534 -0.80671,-2.58541 0,-0.36008 -0.26691,-0.48973 -0.59313,-0.28811 -0.33969,0.20994 -0.44096,-0.03 -0.23699,-0.5615 0.23977,-0.62484 -0.9877,-2.20699 -3.75688,-4.84239 -6.84721,-6.51645 -7.63411,-7.19778 -8.13302,-7.04186 -0.26399,0.0825 -0.47998,-0.24878 -0.47998,-0.73617 0,-1.10294 -2.72393,-2.95527 -3.57362,-2.43014 -0.34451,0.21292 -0.62638,0.10119 -0.62638,-0.24828 0,-0.36611 -1.32815,-0.63541 -3.13372,-0.63541 h -3.13372 l 2.08372,1.88346 c 1.14604,1.0359 3.70372,3.33811 5.68372,5.11603 1.98,1.77791 4.04419,3.64778 4.58709,4.15526 0.78585,0.73458 1.05142,0.76189 1.30263,0.13397 0.19399,-0.48489 0.33379,-0.35036 0.36291,0.34923 0.0591,1.41927 6.06528,7.02175 7.12853,6.64938 0.42964,-0.15048 0.62184,-0.0158 0.42712,0.29927 -0.38967,0.6305 3.76606,4.81892 4.76672,4.80421 0.34375,-0.005 0.26444,-0.23774 -0.17625,-0.51708 z m 4.36511,-0.0153 c 0.34763,-0.56248 -3.32766,-3.19467 -3.80047,-2.72185 -0.33094,0.33093 2.37003,3.26339 3.00579,3.26339 0.25299,0 0.6106,-0.24369 0.79468,-0.54154 z m 18.05443,-1.10846 c -0.46941,-1.88087 -2.05132,-3.86222 -2.74253,-3.43503 -0.25512,0.15768 -0.33052,-0.22322 -0.16754,-0.84643 0.35175,-1.34507 -0.84147,-2.2753 -1.75139,-1.36538 -0.45147,0.45147 -0.0474,1.61414 1.37905,3.96772 2.18951,3.61268 3.99554,4.53655 3.28241,1.67912 z m 0.83408,-3.75 c -1.75352,-3.45069 -2.31675,-4.03563 -3.11616,-3.23622 -0.43768,0.43768 3.71769,6.83622 4.43961,6.83622 0.27826,0 -0.31729,-1.62 -1.32345,-3.6 z m -17.078,2.44146 c 0.18986,-0.3072 0.0708,-0.72814 -0.26459,-0.93541 -0.33538,-0.20728 -0.60978,0.0441 -0.60978,0.55854 0,1.05391 0.36003,1.20909 0.87437,0.37687 z m -2.54371,-1.16604 c -0.84783,-2.21391 -22.58262,-26.4379 -23.05477,-25.69515 -0.25164,0.39585 -0.46165,1.68889 -0.46671,2.87342 -0.007,1.68167 0.29903,2.29412 1.3971,2.79443 2.52827,1.15196 15.52093,14.1234 16.63948,16.61232 1.31778,2.93221 6.5468,6.18787 5.4849,3.41498 z m 6.71714,-3.15988 c -0.47799,-0.7734 -3.83885,-2.41853 -4.49442,-2.20001 -0.31089,0.10364 0.13605,1.22049 0.9932,2.48191 1.48992,2.19261 1.60831,2.24837 2.69179,1.26783 0.62333,-0.56411 0.98757,-1.26148 0.80943,-1.54973 z m -4.4478,1.28446 c 0,-0.33 -0.2363,-0.6 -0.52511,-0.6 -0.28881,0 -0.89124,-1.6875 -1.33874,-3.75 -0.55328,-2.55004 -1.34522,-4.29276 -2.47489,-5.44616 -0.91369,-0.93288 -1.66848,-1.87788 -1.6773,-2.1 -0.009,-0.22211 -1.1136,-1.60183 -2.45505,-3.06604 -1.34145,-1.46421 -3.14314,-3.58538 -4.00376,-4.7137 -1.38952,-1.82176 -1.61381,-1.92678 -2.00279,-0.93781 -0.36773,0.93499 -0.44479,0.8721 -0.48019,-0.39196 -0.0232,-0.82812 -0.54249,-1.81813 -1.15399,-2.20002 -1.36641,-0.85333 -6.68818,-1.70506 -6.68818,-1.07041 0,0.56636 5.5696,6.50463 6.3421,6.7619 0.30684,0.10219 0.7517,0.70969 0.98856,1.35 0.23687,0.64031 0.7253,1.1642 1.08541,1.1642 0.36011,0 0.53215,-0.2025 0.38231,-0.45 -0.14984,-0.2475 0.10423,-0.79815 0.56459,-1.22366 1.05151,-0.9719 1.10376,0.0556 0.087,1.71123 -0.67187,1.09406 -0.45311,1.50292 2.1,3.92485 1.5675,1.48697 2.85,2.84979 2.85,3.02851 0,0.79664 5.01363,5.8883 5.62159,5.70907 0.37313,-0.11 0.47532,0.003 0.2271,0.25131 -0.24822,0.24822 -0.004,0.94572 0.54299,1.55 1.09203,1.20668 2.00832,1.43421 2.00832,0.49869 z m -11.35263,-16.55 c 0.0288,-0.69897 0.17096,-0.84114 0.36249,-0.3625 0.17332,0.43312 0.15201,0.95062 -0.0473,1.15 -0.19938,0.19937 -0.34118,-0.155 -0.31513,-0.7875 z m 18.85262,14.15 c 0.20396,-0.33 -0.0501,-0.6 -0.56458,-0.6 -0.51448,0 -0.93542,0.27 -0.93542,0.6 0,0.33 0.25407,0.6 0.56459,0.6 0.31053,0 0.73146,-0.27 0.93541,-0.6 z m -6.56608,-7.67317 c -2.17965,-3.20476 -6.44655,-9.52424 -9.48199,-14.0433 -3.03545,-4.51905 -5.61269,-8.12276 -5.72721,-8.00825 -0.11451,0.11452 -0.6132,1.7591 -1.10819,3.65463 l -0.89999,3.44642 2.16663,2.10444 c 3.73742,3.63015 11.98961,13.91966 12.61684,15.73171 0.71458,2.06441 5.85855,5.19461 6.19845,3.77187 0.10915,-0.45688 -1.58489,-3.45276 -3.76454,-6.65752 z m 8.6777,3.18553 c -1.82299,-1.94049 -2.64542,-1.92559 -2.15234,0.039 0.61516,2.451 1.65353,3.33913 2.70693,2.31528 0.75279,-0.73168 0.68017,-1.03993 -0.55459,-2.35428 z m -3.23701,1.03764 c -0.16844,-0.5775 -0.49114,-2.4 -0.71712,-4.05 -0.39876,-2.91162 -1.18703,-5.08567 -2.06671,-5.7 -0.23627,-0.165 -1.03074,-1.48555 -1.76551,-2.93456 -0.73476,-1.449 -1.58652,-2.934 -1.89279,-3.3 -0.30628,-0.36599 -1.63083,-2.3612 -2.94345,-4.43381 -1.31263,-2.0726 -2.85964,-3.91799 -3.43781,-4.10086 -0.57817,-0.18288 -2.06647,-0.75686 -3.30733,-1.27552 -2.60797,-1.09009 -3.18996,-0.85455 -1.93939,0.78488 1.43513,1.88138 5.93452,8.63411 6.72634,10.09495 0.40197,0.74159 1.41447,2.08598 2.25,2.98754 0.83554,0.90156 1.51917,2.00779 1.51917,2.45829 0,0.4505 0.2025,0.90909 0.45,1.01909 0.2475,0.11 1.14681,1.28 1.99847,2.6 0.85166,1.32 2.20166,3.41065 3,4.6459 1.52223,2.35531 2.64784,2.99278 2.12613,1.2041 z m 3.74382,-4.10728 c -2.4213,-5.49729 -13.59939,-24.76393 -14.39848,-24.81732 -1.00894,-0.0674 -0.95408,3.35097 0.0718,4.4746 0.60258,0.66 1.86345,2.45809 2.80193,3.99577 0.93847,1.53767 3.12382,5.08516 4.85631,7.88332 1.7325,2.79816 3.15,5.79256 3.15,6.65423 0,0.86167 0.225,1.56668 0.5,1.56668 0.27501,0 1.28751,0.7875 2.25,1.75 0.9625,0.9625 1.82078,1.67922 1.90728,1.59272 0.0865,-0.0865 -0.42598,-1.4815 -1.13885,-3.1 z m 0.62484,-7.95522 c -0.88674,-0.30478 -1.33719,0.31332 -0.82835,1.13664 0.3226,0.52196 0.56585,0.4935 0.94085,-0.11008 0.29708,-0.47816 0.25066,-0.90175 -0.1125,-1.02656 z m -5.27458,-5.04562 c -0.69778,-1.44141 -1.26869,-2.93326 -1.26869,-3.31521 0,-1.43119 -2.94166,-5.85839 -4.86066,-7.31529 l -1.99075,-1.51138 1.44404,2.4 c 0.79422,1.32 1.59328,2.535 1.7757,2.7 0.4332,0.39182 2.74324,4.42772 4.37113,7.63683 1.69164,3.33476 2.1708,2.79608 0.52923,-0.59495 z m -69.06868,74.83928 c 0,-3.64929 0.9713,-4.68736 3.12649,-3.34141 0.89842,0.56106 1.36416,0.56596 2.02053,0.0212 0.66732,-0.55385 0.85298,-0.52746 0.85298,0.12121 0,0.45602 -0.54,1.16637 -1.2,1.57855 -0.66,0.41218 -1.2,1.3124 -1.2,2.0005 0,0.74649 0.484,1.37766 1.2,1.56489 2.2429,0.58653 1.21136,1.37385 -1.8,1.37385 h -3 z m 2.7,-0.28117 c 0,-1.1 -0.3375,-2.1125 -0.75,-2.25 -0.52,-0.17333 -0.75,0.51667 -0.75,2.25 0,1.73334 0.23,2.42334 0.75,2.25 0.4125,-0.1375 0.75,-1.15 0.75,-2.25 z m 8.1,-0.86459 c 0,-2.24196 0.28673,-4.0418 0.6829,-4.28665 1.20069,-0.74206 5.48635,-0.85522 6.31589,-0.16676 0.51502,0.42742 0.80121,2.03178 0.80121,4.49147 v 3.82653 h -3.9 -3.9 z m 3,-0.68541 c 0,-3.54121 -1.42067,-3.3332 -1.6845,0.24663 -0.14337,1.94526 0.0238,2.50337 0.75,2.50337 0.71007,0 0.9345,-0.66044 0.9345,-2.75 z m 3.6,0.69908 c 0,-1.12802 -0.16389,-2.47802 -0.3642,-3 -0.72685,-1.89416 -1.4358,-0.88149 -1.4358,2.05092 0,2.26667 0.22,3 0.9,3 0.62447,0 0.9,-0.62788 0.9,-2.05092 z m -17.4,-7.28449 c 0,-2.07081 0.22748,-3.19481 0.6,-2.96459 0.33,0.20396 0.6,1.43489 0.6,2.73542 0,1.30052 0.27,2.36458 0.6,2.36458 0.33,0 0.6,-0.81 0.6,-1.8 0,-0.99 0.27,-1.8 0.6,-1.8 0.33,0 0.6,0.81 0.6,1.8 0,0.99 0.27,1.8 0.6,1.8 0.33,0 0.6,-1.215 0.6,-2.7 0,-1.485 0.27,-2.7 0.6,-2.7 0.33,0 0.6,1.485 0.6,3.3 v 3.3 h -3 -3 z m 14.2116,-0.92248 c -2.26568,-1.1692 -3.42237,-2.11938 -3.3,-2.71084 0.22715,-1.09795 6.91941,-4.80025 7.54539,-4.17427 0.24262,0.24261 -0.031,0.78631 -0.60793,1.2082 -1.35443,0.99039 -1.46603,5.44641 -0.14906,5.95178 0.9125,0.35016 1.27646,1.60717 0.45,1.55416 -0.2475,-0.0158 -2.01978,-0.83893 -3.9384,-1.82903 z m 1.3884,-2.64211 c 0,-1.69753 -0.1733,-1.77058 -1.94758,-0.82101 -1.22858,0.65751 -1.23319,0.70493 -0.14588,1.5 1.61213,1.17881 2.09346,1.0227 2.09346,-0.67899 z m 114.72435,1.09898 c -2.23911,-1.10355 -2.83704,-2.02844 -4.58448,-7.09133 -1.25677,-3.64131 -2.90272,-4.96203 -4.00879,-3.21668 -0.81567,1.28709 -0.60551,5.45217 0.36942,7.32148 0.49122,0.94185 0.74362,1.95435 0.5609,2.25 -0.65102,1.05336 -2.04356,0.51177 -2.86031,-1.11245 -2.74769,-5.46414 -0.78576,-12.15 3.56537,-12.15 1.9816,0 3.65022,1.85789 4.41731,4.91835 0.87385,3.48636 2.26321,6.48165 3.00651,6.48165 0.3723,0 0.60971,-2.33631 0.60971,-6 0,-5.59999 0.08,-6 1.2,-6 1.13846,0 1.2,0.40001 1.2,7.8 0,8.51861 0.003,8.5133 -3.47564,6.79898 z m -130.32435,-4.87898 c 0,-3.25441 0.73999,-4.32 3,-4.32 2.26001,0 3,1.06559 3,4.32 v 2.88 h -3 -3 z m 4.68622,-0.57 c -0.16142,-1.95034 -0.38599,-2.25 -1.68622,-2.25 -1.30023,0 -1.5248,0.29966 -1.68622,2.25 -0.1787,2.15913 -0.11059,2.25 1.68622,2.25 1.79681,0 1.86492,-0.0909 1.68622,-2.25 z m 6.11378,-5.25 c 0,-3.73594 1.33577,-5.7 3.87663,-5.7 2.46344,0 3.92337,2.16314 3.92337,5.81314 v 3.18686 h -3.9 -3.9 z m 6.6,0.26056 c 0,-2.62108 -0.99905,-4.16056 -2.7,-4.16056 -1.70095,0 -2.7,1.53948 -2.7,4.16056 0,1.78008 0.0871,1.83944 2.7,1.83944 2.61286,0 2.7,-0.0593 2.7,-1.83944 z m -17.4,-3.68802 c 0,-0.4001 0.7425,-1.3451 1.65,-2.1 l 1.65,-1.37254 -1.65,-1.37253 c -2.47914,-2.06225 -2.11378,-2.82746 1.35,-2.82746 1.65,0 3,0.27 3,0.6 0,0.33 -1.0125,0.6097 -2.25,0.62157 l -2.25,0.0216 1.8,1.50293 1.8,1.50293 -1.8,1.47251 -1.8,1.47252 2.25,0.003 c 1.2375,0.002 2.25,0.27295 2.25,0.60295 0,0.33 -1.35,0.6 -3,0.6 -1.95043,0 -3,-0.2545 -3,-0.72746 z M 18.1666,544.65325 c -2.30181,-1.42856 -3.52368,-3.89156 -3.52368,-7.10294 0,-2.48506 0.28249,-3.11049 2.32941,-5.15742 2.04999,-2.04998 2.67024,-2.32941 5.17059,-2.32941 2.50036,0 3.12061,0.27943 5.17059,2.32941 2.07821,2.07821 2.32712,2.64436 2.30815,5.25 -0.0117,1.60632 -0.3674,3.54435 -0.79046,4.30673 -1.89067,3.40714 -7.31519,4.78233 -10.6646,2.70363 z m 6.63341,-2.26758 c 1.90488,-0.98506 2.44291,-2.00052 2.44291,-4.61071 0,-2.55034 -0.88954,-3.88587 -3.10189,-4.6571 -2.33634,-0.81445 -5.59906,0.0657 -6.50272,1.75422 -0.83023,1.55131 -0.74344,4.97646 0.15461,6.10212 1.82896,2.2925 4.32937,2.79617 7.00709,1.41147 z m -118.15708,1.84902 c 0,-0.45583 0.99139,-1.58496 2.20309,-2.50917 l 2.20309,-1.68038 -2.20309,-1.90442 c -3.15421,-2.72659 -2.86909,-3.27724 1.69691,-3.27724 2.2,0 3.9,0.26153 3.9,0.6 0,0.33 -1.2825,0.61013 -2.85,0.62252 l -2.85,0.0225 2.29468,1.96491 2.29468,1.96491 -2.55124,1.76256 -2.55124,1.76257 3.10656,0.18135 c 4.47008,0.26096 3.83366,1.31865 -0.79344,1.31865 -2.91773,0 -3.9,-0.20874 -3.9,-0.82879 z m -9.4665,-4.90524 c -1.95299,-1.36792 -1.87806,-5.2815 0.12626,-6.59479 1.15035,-0.75373 1.72874,-0.81252 2.72873,-0.27735 2.68476,1.43685 2.73269,5.74983 0.0797,7.16968 -1.49132,0.79814 -1.34989,0.81248 -2.93466,-0.29754 z m 3.4665,-2.06597 c 0.83047,-1.55174 -0.19367,-3.6 -1.8,-3.6 -1.60634,0 -2.63047,2.04826 -1.8,3.6 0.35322,0.66 1.16322,1.2 1.8,1.2 0.63678,0 1.44678,-0.54 1.8,-1.2 z m 6,-5.72863 c 0,-0.75715 0.6837,-0.89565 3.70238,-0.75 2.29245,0.1106 3.79667,0.46424 3.95,0.92863 0.1813,0.54912 -0.81032,0.75 -3.70238,0.75 -3.16524,0 -3.95,-0.1845 -3.95,-0.92863 z m -10.8,-1.47137 c 0,-0.33 1.05111,-0.6 2.33581,-0.6 2.18611,0 3.06419,-0.68954 3.06419,-2.40622 0,-1.09648 -1.97423,-2.39378 -3.64286,-2.39378 -0.96643,0 -1.75714,-0.27 -1.75714,-0.6 0,-0.66794 2.95163,-0.81114 4.49689,-0.21817 1.49929,0.57533 2.15652,2.88588 1.42103,4.99572 -0.57789,1.65773 -0.87404,1.82245 -3.27662,1.82245 -1.45271,0 -2.6413,-0.27 -2.6413,-0.6 z m 10.8,-2.15256 c 0,-0.5239 1.2825,-2.13318 2.85,-3.57617 l 2.85,-2.62363 -2.85,-0.0238 c -2.12275,-0.0177 -2.85,-0.25348 -2.85,-0.92382 0,-0.7077 0.83333,-0.9 3.9,-0.9 2.66123,0 3.9,0.23168 3.9,0.72939 0,0.40116 -1.27235,2.02116 -2.82745,3.6 l -2.82744,2.87061 h 2.82744 c 2.11329,0 2.82745,0.22732 2.82745,0.9 0,0.70769 -0.83334,0.9 -3.9,0.9 -3.1623,0 -3.9,-0.18018 -3.9,-0.95256 z m 108.6211,-1.408 c -0.34161,-0.6383 -0.62111,-1.7183 -0.62111,-2.4 0,-1.18649 0.32044,-1.23944 7.5,-1.23944 7.1,0 7.5,0.064 7.5,1.2 0,1.12092 -0.4,1.2 -6.06998,1.2 -5.77458,0 -6.0547,0.0584 -5.75617,1.2 0.4215,1.6118 -1.69374,1.64449 -2.55274,0.0394 z m -119.4211,-4.96415 c 0,-0.39858 0.9998,-1.74858 2.22177,-3 l 2.22177,-2.27529 h -2.22177 c -1.22197,0 -2.22177,-0.27 -2.22177,-0.6 0,-0.33 1.35,-0.6 3,-0.6 3.6659,0 3.89374,0.89098 0.9,3.51951 -1.155,1.0141 -2.1,1.98707 -2.1,2.16216 0,0.17508 0.945,0.31833 2.1,0.31833 1.155,0 2.1,0.27 2.1,0.6 0,0.33 -1.35,0.6 -3,0.6 -1.94415,0 -3,-0.25506 -3,-0.72471 z m 127.02021,-3.70228 c -1.11414,-1.20217 -1.4442,-1.29669 -2.09501,-0.6 -0.83057,0.88913 -3.01068,1.0854 -4.08539,0.3678 -1.3262,-0.88553 -2.03982,-3.13881 -2.03982,-6.44081 0,-3.302 0.71362,-5.55529 2.03982,-6.44081 1.1083,-0.74004 3.22336,-0.51029 4.18863,0.45497 0.81889,0.81889 0.97963,0.79186 1.54222,-0.25936 1.37151,-2.56269 4.88203,-2.25356 6.33591,0.55792 1.16507,2.25299 1.1745,9.10333 0.0156,11.34436 -1.45451,2.8127 -3.854,3.22574 -5.90198,1.01593 z m 3.7363,-2.42063 c 1.1411,-1.37493 0.57939,-8.18361 -0.74166,-8.99 -1.59927,-0.97621 -2.81486,1.00672 -2.81486,4.59174 0,4.49865 1.71402,6.61834 3.55652,4.39826 z m -6.57763,-0.91294 c 0.88826,-1.65972 0.76665,-5.61105 -0.21396,-6.95212 -1.40623,-1.92313 -2.76493,-0.17071 -2.76493,3.56614 0,4.06129 1.62746,5.91115 2.97889,3.38598 z m -113.37888,-0.0394 c 0,-2.4 0.25714,-4.2 0.6,-4.2 0.33,0 0.6,0.81 0.6,1.8 0,1.78182 0.0333,1.8 3.3,1.8 1.815,0 3.3,0.27 3.3,0.6 0,0.33 -1.485,0.6 -3.3,0.6 -3.26667,0 -3.3,0.0182 -3.3,1.8 0,0.99 -0.27,1.8 -0.6,1.8 -0.34286,0 -0.6,-1.8 -0.6,-4.2 z m -10.8,-3.9 c 0,-1.815 0.27,-3.3 0.6,-3.3 0.33,0 0.6,0.675 0.6,1.5 0,1.35 0.24,1.5 2.4,1.5 1.32,0 2.4,0.27 2.4,0.6 0,0.33 -1.08,0.6 -2.4,0.6 -2,0 -2.4,0.2 -2.4,1.2 0,0.66 -0.27,1.2 -0.6,1.2 -0.33,0 -0.6,-1.485 -0.6,-3.3 z m 11.73402,-2.83351 c -1.33874,-1.91131 -1.19987,-5.60064 0.26598,-7.06649 2.67285,-2.67285 6.6,-0.6102 6.6,3.46649 0,3.18876 -1.37925,4.93351 -3.9,4.93351 -1.4196,0 -2.31344,-0.40187 -2.96598,-1.33351 z m 4.72312,-0.80935 c 1.1158,-1.11579 1.24227,-3.91773 0.22286,-4.93714 -0.396,-0.396 -1.287,-0.72 -1.98,-0.72 -1.71858,0 -2.7,1.1185 -2.7,3.07714 0,1.74768 1.36054,3.52286 2.7,3.52286 0.44786,0 1.23857,-0.42429 1.75714,-0.94286 z m -13.90714,-1.61257 c -1.4025,-0.70454 -2.55,-1.60971 -2.55,-2.01148 0,-0.40177 1.25606,-1.43252 2.79124,-2.29055 2.72462,-1.52282 4.13966,-1.63344 2.71876,-0.21254 -0.86142,0.86142 -0.95113,4.67 -0.11,4.67 0.33,0 0.6,0.27 0.6,0.6 0,0.83102 -0.51749,0.71771 -3.45,-0.75543 z m 1.05,-2.22574 c 0,-0.80342 -0.28783,-1.07072 -0.9,-0.83581 -0.96258,0.36938 -1.14799,0.96899 -0.5,1.61698 0.75677,0.75677 1.4,0.39786 1.4,-0.78117 z m -3.6,-5.41883 c 0,-0.33 1.35,-0.6 3,-0.6 1.65,0 3,0.27 3,0.6 0,0.33 -1.35,0.6 -3,0.6 -1.65,0 -3,-0.27 -3,-0.6 z m 10.8,-0.72939 c 0,-0.40117 1.27235,-2.02117 2.82744,-3.6 l 2.82745,-2.87061 h -2.82745 c -2.11328,0 -2.82744,-0.22732 -2.82744,-0.9 0,-0.70769 0.83333,-0.9 3.9,-0.9 4.83362,0 5.024,0.7418 1.11321,4.33764 l -2.78678,2.56236 2.59019,0.3 c 1.42461,0.165 2.70116,0.6375 2.83679,1.05 0.18051,0.54902 -0.8119,0.75 -3.70341,0.75 -2.70048,0 -3.95,-0.23073 -3.95,-0.72939 z m -10.80003,-2.42061 c -1e-5,-0.4125 1.01249,-1.61736 2.25,-2.67747 l 2.25003,-1.92747 -2.3,-0.0225 c -3.17281,-0.0311 -2.58296,-1.46536 0.70212,-1.7073 3.58459,-0.26399 3.92411,1.1306 0.92098,3.78301 l -2.3231,2.05181 2.25,0.025 c 1.2375,0.0137 2.25,0.29497 2.25,0.62497 0,0.33 -1.35,0.6 -3,0.6 -1.99999,0 -3.00001,-0.25 -3.00003,-0.75 z"
       id="path44"
       inkscape:connector-curvature="0" />
  </g>
</svg>
